<?xml version="1.0" standalone="no"?><!DOCTYPE svg PUBLIC "-//W3C//DTD SVG 1.1//EN" "http://www.w3.org/Graphics/SVG/1.1/DTD/svg11.dtd"><svg class="icon" width="200px" height="200.00px" viewBox="0 0 1024 1024" version="1.1" xmlns="http://www.w3.org/2000/svg"><path d="M688.49911362 654.35965973c-15.01000758-15.07924036-12.60064912 12.66988722-19.02559438 19.1225277a311.62378486 311.62378486 0 0 1-27.66604718 24.67512063h-379.43190528a311.51993839 311.51993839 0 0 1-27.70758473-24.71666343c-81.02495668-81.38497354-110.3110798-201.29193353-75.97777004-311.12529715l-30.02000977-30.20002355a38.81277591 38.81277591 0 0 1-0.0761566-54.68820661 38.35582572 38.35582572 0 0 1 54.41819401-0.07616197l18.94251385 19.30945999a22.98580122 22.98580122 0 0 0 32.63014816 0 23.26273767 23.26273767 0 0 0 0-32.78938523l-35.32336161-35.48952231a23.2696615 23.2696615 0 0 1 0-32.78939051 22.98580122 22.98580122 0 0 1 32.6301482 0l48.96252908 49.12869528a23.20042879 23.20042879 0 0 0 12.52449262 26.55829069 22.98580122 22.98580122 0 0 0 28.37223326-7.15882657 23.24889542 23.24889542 0 0 0-1.44699655-29.35536664c-9.43664322-10.87671607-18.49941662-20.56260047-18.49941669-20.56260048l-20.95031264-21.12339722c99.3859024-60.6769783 235.92988045-62.04089457 334.46419672 0 98.54124539 62.04089457 153.81794403 174.6367096 142.85122388 290.97118012l44.00535184 44.60769163a23.26273767 23.26273767 0 0 1 0 32.78938514 22.98580122 22.98580122 0 0 1-32.63014805 0l-43.00145266-43.60379227a22.98580122 22.98580122 0 0 0-32.63014825 0 23.2696615 23.2696615 0 0 0 0 32.78938523l48.92099164 49.16330889a38.75738541 38.75738541 0 0 1 0 54.57051249 38.28659297 38.28659297 0 0 1-54.33511883-0.00692385z" fill="#E6E6E6" /><path d="M151.98140661 169.28999164a24.22509947 24.22509947 0 0 0 36.34803231 20.98493167A24.22509947 24.22509947 0 0 0 176.21342459 145.05796826a24.23202324 24.23202324 0 0 0-24.23201798 24.23202338M664.58557484 155.49158702h22.89579703a3.80788834 3.80788834 0 0 1 3.81481223 3.85635508c0 1.02467077-0.40155971 2.0077934-1.11467499 2.73475627a3.75250327 3.75250327 0 0 1-2.70013724 1.12851732h-22.89579703a3.75250327 3.75250327 0 0 1-2.70014248-1.12851732 3.90481645 3.90481645 0 0 1 0-5.46951778 3.84250748 3.84250748 0 0 1 2.70014248-1.12159357M237.18811613 541.80538767c-12.64219205 0-22.89579709 10.37130445-22.89580228 23.17273344s10.25360502 23.17965727 22.89580228 23.17965739c12.64219205 0 22.89579709-10.37822821 22.89579708-23.17965739 0-12.80142901-10.25360502-23.17273349-22.89579708-23.17273344z m14.1030363 29.08534861a15.25924879 15.25924879 0 0 1-14.09611248 9.54048976c-8.42582004 0-15.26617268-6.91650907-15.26617794-15.45310493a15.43925726 15.43925726 0 0 1 9.4227956-14.26919707 15.12078321 15.12078321 0 0 1 16.6370127 3.35093815c4.36176132 4.41715182 5.66336855 11.05672453 3.30248212 16.83087409zM450.88684291 190.26107566c-12.64911584 0-22.89579709 10.37822821-22.89579708 23.17273351 0 12.80142901 10.24668114 23.17965727 22.89579708 23.17965725 6.07185219 0 11.89446302-2.44397219 16.19391529-6.78496201 4.2925286-4.34791904 6.7088054-10.24668114 6.70880553-16.38777139-0.00692388-12.80142901-10.25360502-23.17965727-22.90272082-23.17965736z m14.10996001 29.09227246a15.26617268 15.26617268 0 0 1-14.10303627 9.54048968c-8.43274394 0-15.26617268-6.91650907-15.25924882-15.45310478 0-6.25186049 3.71788422-11.8875392 9.42279564-14.26919715a15.12078321 15.12078321 0 0 1 16.63701265 3.35094352c4.35484284 4.41022804 5.66336855 11.05672453 3.3024768 16.83086873zM676.03693534 429.77036942c-12.64911584 0-22.89579709 10.37822821-22.89579704 23.17965727 0 12.80142901 10.25360502 23.17273349 22.89579704 23.17273354 12.64219205 0 22.89579709-10.37822821 22.89579701-23.17273354 0-12.80142901-10.25360502-23.17965727-22.89579701-23.17965727z m14.10303624 29.09227241a15.26617268 15.26617268 0 0 1-14.10303624 9.54048974c-8.43274394 0-15.26617268-6.91650907-15.26617268-15.44618107 0-6.25186049 3.71788422-11.8875392 9.4227903-14.28304471a15.14154938 15.14154938 0 0 1 16.63701795 3.35094348c4.36176132 4.41715182 5.66336855 11.06364838 3.30940067 16.83779256zM561.55102106 55.05332396c-12.64219205 0-22.89579709 10.37822821-22.89579701 23.17965719 0 12.80142901 10.25360502 23.17273349 22.89579701 23.17273355a22.73656006 22.73656006 0 0 0 16.19391535-6.78496197c4.2925286-4.34791904 6.7088054-10.24668114 6.70880551-16.38777158-0.00692388-12.80142901-10.26052891-23.17965727-22.90272086-23.17965719z m14.10303632 29.0922724a15.25924879 15.25924879 0 0 1-14.10303632 9.54048973c-8.42582004 0-15.26617268-6.92343295-15.2661726-15.45310494 0-6.25186049 3.71788422-11.8875392 9.4227956-14.27612072a15.12078321 15.12078321 0 0 1 16.63701269 3.35094342c4.36176132 4.41715182 5.67029236 11.06364838 3.30940063 16.83779251zM370.49192097 96.59392694h23.30428057c1.03158925 0 2.02164092 0.40155971 2.74860396 1.11467505a3.75942709 3.75942709 0 0 1 0 5.38643211 3.92558787 3.92558787 0 0 1-2.74860396 1.11467496h-23.30428057a3.92558787 3.92558787 0 0 1-2.74168-1.11467496 3.77326932 3.77326932 0 0 1 0-5.38643211 3.91174026 3.91174026 0 0 1 2.74168-1.11467505" fill="#DBDBDB" /><path d="M680.48870089 146.83036807v22.84733571a3.77326932 3.77326932 0 0 1-1.13544114 2.69321873 3.92558787 3.92558787 0 0 1-2.74168003 1.11466962 3.84250748 3.84250748 0 0 1-3.8840451-3.80788835v-22.84733571c0-1.01082315 0.40848356-1.98010349 1.13544119-2.69321339a3.92558787 3.92558787 0 0 1 5.49028394 0 3.77326932 3.77326932 0 0 1 1.13544114 2.69321339M211.28062112 407.42844531h23.48428893a3.9463593 3.9463593 0 0 1 2.76245155 1.12159882 3.77326932 3.77326932 0 0 1 1.14928873 2.70013727 3.87019732 3.87019732 0 0 1-3.91174028 3.82173593h-23.48428893a3.92558787 3.92558787 0 0 1-3.38555721-1.9108707 3.73173177 3.73173177 0 0 1 0-3.81481209 3.92558787 3.92558787 0 0 1 3.38555721-1.91778923m175.79292735-320.09114785v22.91656851c0 1.01082315-0.41540737 1.98702724-1.14928865 2.70013717a3.93943546 3.93943546 0 0 1-5.52490303 0 3.78711698 3.78711698 0 0 1-1.14928878-2.70013717v-22.91656851c0-1.01082315 0.41540737-1.98702724 1.14928878-2.70013715a3.93943546 3.93943546 0 0 1 6.67419168 2.70013715" fill="#DBDBDB" /><path d="M561.17023279 248.90948921h23.17965728a3.87712115 3.87712115 0 0 1 3.80788843 3.89789262 3.87712115 3.87712115 0 0 1-3.80788843 3.89096877h-23.17965728a3.8909688 3.8909688 0 0 1-2.72783247-6.64649647 3.81481214 3.81481214 0 0 1 2.72783247-1.14236492m-332.22792835 152.75173571v23.36658954a3.93943546 3.93943546 0 0 1-1.12852252 2.75552763 3.84250748 3.84250748 0 0 1-6.59110603-2.75552763v-23.36658954c0-1.03158925 0.40848356-2.02164092 1.12851736-2.74860384a3.82865984 3.82865984 0 0 1 5.46258867 0 3.88404494 3.88404494 0 0 1 1.12852252 2.74860384M261.6001426 712.72421306h172.39352258a3.82865984 3.82865984 0 0 1 3.83557827 3.84943128 3.87712115 3.87712115 0 0 1-3.83557827 3.85634967h-172.39352258a3.8494312 3.8494312 0 1 1 0-7.70578095M525.94379925 712.72421306H625.5443238a3.8494312 3.8494312 0 1 1 0 7.70578095h-99.60052455a3.84250748 3.84250748 0 0 1-2.71399014-6.57725822 3.84250748 3.84250748 0 0 1 2.71399014-1.12852273M353.5433529 739.69099262h375.43708445a3.84250748 3.84250748 0 0 1 2.71398486 6.57725844 3.84250748 3.84250748 0 0 1-2.71398486 1.12852255h-375.43708445a3.83558366 3.83558366 0 0 1-3.82865988-3.85635504 3.84250748 3.84250748 0 0 1 3.82865988-3.84942595M169.66385611 739.69099262h99.60052997a3.84250748 3.84250748 0 0 1 2.71398473 6.57725844 3.84250748 3.84250748 0 0 1-2.71398473 1.12852255h-99.60052997a3.84250748 3.84250748 0 0 1-2.71398481-6.57726369 3.84250748 3.84250748 0 0 1 2.71398481-1.1285173M464.64370991 712.72421306h22.98580127a3.8494312 3.8494312 0 1 1 0 7.70578095h-22.98580127a3.8632789 3.8632789 0 1 1 0-7.70578095M713.65887961 689.61378854h22.98580124a3.80788834 3.80788834 0 0 1 3.82865981 3.85635509 3.8494312 3.8494312 0 0 1-3.82865981 3.8494259h-22.98580124a3.85635509 3.85635509 0 0 1 0-7.70578099M184.98541921 689.61378854h490.36609605a3.85635509 3.85635509 0 0 1 0.00692389 7.69885721h-490.36609612a3.84250748 3.84250748 0 0 1-0.00692382-7.69885721" fill="#DBDBDB" /><path d="M575.74406159 238.91897305v23.11042456a3.81481214 3.81481214 0 1 1-7.66424353 0v-23.11042456a3.87019732 3.87019732 0 0 1 3.82865986-3.85635499 3.85635509 3.85635509 0 0 1 3.83558367 3.85635499" fill="#DBDBDB" /><path d="M549.17191785 458.74494237l-11.97061424-4.92256339 30.2277135-70.30055383 0.87927612-1.84855632h13.18914107l-26.6413764 63.5986667h0.0692382l-5.75337825 13.47300684z m-24.68204434 41.85215848c0 4.99179619-0.94850883 9.64434691-2.77629385 14.01995596a36.49342172 36.49342172 0 0 1-7.57423921 11.41674668 36.3480323 36.3480323 0 0 1-11.29212347 7.65731434 34.84564524 34.84564524 0 0 1-13.86071349 2.80399436h-31.44624025a34.84564524 34.84564524 0 0 1-13.86071362-2.80399436 36.00185772 36.00185772 0 0 1-11.29212344-7.65731434 35.35105674 35.35105674 0 0 1-4.05713499-4.92256335l38.48045438-56.68908152v20.31335391c0 1.84855632 0.60926339 3.42017632 1.82778496 4.6525507a6.23108913 6.23108913 0 0 0 4.5971602 1.84855639 6.23108913 6.23108913 0 0 0 4.59716028-1.84855639 6.37648391 6.37648391 0 0 0 1.82778494-4.6525507v-39.38741502l35.57260809-52.4519434c2.63782816 2.94245986 4.79794012 6.2934034 6.42494515 10.12206323 1.82778491 4.37560895 2.77629913 9.02815969 2.77629912 14.01995589v83.5658515h0.0553852v-0.00692388z m-99.68361037 14.01995596a35.95339639 35.95339639 0 0 1-2.77629373-14.01995596v-83.63508419c0-4.99179619 0.94850883-9.64434691 2.77629373-14.01995588a36.49342172 36.49342172 0 0 1 7.57423931-11.41674671 36.3480323 36.3480323 0 0 1 11.29212335-7.65731438 34.84564524 34.84564524 0 0 1 13.86071356-2.80399423h31.44624031c4.93641102 0 9.5335713 0.95543265 13.86071899 2.80399423a35.33028532 35.33028532 0 0 1 10.89055829 7.31806901l-34.01483057 50.12566537v-8.48120527a6.37648391 6.37648391 0 0 0-1.8277902-4.65255066c-1.21852686-1.23236906-2.76937526-1.84855632-4.59716022-1.84855645s-3.37863341 0.61618725-4.59716028 1.84855645a6.37648391 6.37648391 0 0 0-1.827785 4.65255066v27.56219008l-39.69897578 58.606876a25.58901573 25.58901573 0 0 1-2.36089176-4.38253807zM560.46404128 535.81661595v-97.9250581l23.53275574-56.21136536h14.40074419v138.75255145a157.72968428 157.72968428 0 0 0 17.44705051-72.4191283c0.07615654-87.05526595-69.71898563-157.56352345-155.73573315-157.56351803C374.08518193 290.45009761 304.29696352 360.95835515 304.29696352 448.00669727c0 4.37560895 0.20077984 8.68198505 0.5400306 12.92605227l63.63328585-79.87566798h38.07196548l-55.92750498 84.25127691h17.91784851v-19.01175205l38.27274535-61.41086502v151.54013797h-38.27274535v-32.13858418h-53.89893467c17.91784845 47.32167644 57.75528983 83.70432243 106.91859871 96.35343831-3.51710432 8.8896888-13.6599337 30.49773154-30.56696427 34.326386-20.96416017 4.72178349 56.93832812 1.16313635 112.39503508-35.62799327 35.5033699-10.3920759 65.80032157-33.1632497 85.95443861-63.46020132H560.46404128v-0.06230896z" fill="#FFFFFF" /><path d="M760.35744495 235.63033853c6.2934034-10.89748752 19.65562918-14.97538848 29.87461512-9.076621 10.1912961 5.88491984 13.36914951 19.51716353 7.07575157 30.41465113-6.2449367 10.87671607-19.65562918 14.97538848-29.87462054 9.07662099-10.18437226-5.8918437-13.36223108-19.52408746-7.07574615-30.41465112z m82.94966429-36.41034132c-9.27740103 1.98010349-15.64696093 4.22329573-19.05328946 6.75727216-3.38555719 2.50628112-7.56039164 8.12118841-12.42064075 16.8654878l-26.31597324-15.19001609c2.31242503-4.13329152 3.69711274-6.66034411 4.22329566-7.57423377 5.33796541-9.24278719 11.12595727-16.03467306 17.41243705-20.39643979 6.28647959-4.35484284 15.79235569-7.82348039 28.54531785-10.39207588 12.74604384-2.61705681 20.61798566-4.55561732 23.60891222-5.9126152a24.09355245 24.09355245 0 0 0 10.8005595-9.85896901c3.53095195-6.11339503 4.26483332-12.61449674 2.28472988-19.60024401-1.97317969-6.93035675-6.83342869-12.66296348-14.44920553-17.05934383-7.35961178-4.25099107-14.8646129-5.54566911-22.41115691-3.85634974-7.56731547 1.66854797-17.59936912 9.21509191-22.18961083 14.83691765-4.32022372 5.28950405-31.71625308-7.20036943-24.55742122-18.88020498 7.15190811-11.67983554 20.25796876-21.2618681 35.37182825-24.93820944 15.12770709-3.71096041 30.60850181-0.97620405 46.39393369 8.14195978 16.6577841 9.61665168 27.146788 21.95421191 31.54316834 37.10268519 4.39638036 15.14847313 2.95630755 28.94687766-4.27868094 41.47829393a45.09232643 45.09232643 0 0 1-16.8031787 16.56777995c-7.21421701 4.09867246-19.73178571 8.05887935-37.70502486 11.90830528z" fill="#E4E4E4" /><path d="M211.58525281 905.88111071v1.94548974h0.65080093c3.2470917 0.43617877 4.86717291 1.73085695 4.86717824 3.89096882 0 1.51623473-0.21462754 2.59628539-0.65080632 3.24709165L207.36888085 943.19842333h-0.32540314l-8.76506554-27.58296146c0-0.42925502-0.11077565-1.08005596-0.32540311-1.94548442-0.43617877-1.30160726-0.65080092-2.16011191-0.65080095-2.59629077-0.21462754-2.16011191 1.50931097-3.2470917 5.19257607-3.24708623h0.65080087v-1.94548974h-25.96288023v1.94548974c3.0255403 0.21462754 5.08180044 1.19083162 6.16878011 2.92168845l2.5962908 8.11426455-9.40894799 25.31207395h-0.32540315l-9.73434578-29.85384902a7.90656084 7.90656084 0 0 1-0.65080631-2.92168849c-0.21462754-2.16011191 1.50931097-3.35094347 5.19257608-3.57248944v-1.94548974h-24.34279368v1.94548974c2.81091278 0 4.75639721 1.84163255 5.84337694 5.51797379l17.52321262 49.32946982h2.27088758l15.2523249-38.29351674h0.32540321l13.95764143 38.29351674h2.27088753l16.55393232-49.32946982c1.30160726-3.46171915 3.2470917-5.29642787 5.84338236-5.51797379v-1.94548974h-14.93385098zM268.37818625 954.88518268v-20.44490103c-0.21462754-7.35268798-3.8909688-11.25058051-11.03595303-11.68675935-3.8909688-0.21462754-7.89963714 1.94548436-12.00523892 6.49418327v-23.36659486h-15.90312584v1.94548974c3.46171915 0.21462754 4.97794857 1.84163255 4.54176975 4.86717289v42.19140934c0.21462754 3.2470917-1.30160726 4.97794857-4.54176975 5.19257602V962.02324313h20.11949789v-1.94548443c-2.81091278-0.21462754-4.2163719-1.8347087-4.21637205-4.8671729v-22.07191143c1.94548436-3.0255403 4.2163719-4.65254541 6.81266281-4.86717287 3.2470917 0 4.86717291 2.27088752 4.8671729 6.81265725v20.11950331c0 3.03246417-1.30160726 4.65254541-3.89096884 4.86717282V962.02324313h19.46869693v-1.94548443c-3.0255403 0-4.43099949-1.73085695-4.21637185-5.19257602zM294.99186732 922.7535223c-11.47213189 0.86542842-17.7447639 7.57423929-18.8248198 20.11950325 0.86542842 12.55218777 7.13806041 19.15021756 18.8248198 19.79409473 11.68675935-0.65080092 17.95939142-7.24883615 18.82481979-19.79409473-0.86542842-12.54526405-7.13806041-19.25406945-18.82481979-20.11950325z m0.32540317 37.96811352c-4.97794857 0.43617877-7.24883615-5.51797924-6.81266265-17.84861027-0.43617877-12.116009 1.73085695-17.95939142 6.49418333-17.5232126 4.75639721-0.86542842 6.92343295 4.97794857 6.49418328 17.5232126 0.42233116 12.55218777-1.63392884 18.49941662-6.17570396 17.84861027zM329.39441524 954.23438172v1.30160184c0.42925502 4.11252009 2.81091278 6.49418326 7.13806045 7.1380605 1.08005596 0.65080092 1.08005596 2.27088752 0 4.86717822-0.65080092 1.50931097-1.84163255 3.13631595-3.57249483 4.86717292 0.42925502 0.42925502 0.7546528 0.65080092 0.97620953 0.650801 5.40720356-2.81091278 8.76506551-7.78886133 10.05974887-14.92692189v-1.94548443c-0.65080092-5.40720356-3.03246417-8.32889211-7.13806039-8.76507086h-0.65080635c-3.8909688 0.64387715-6.16185633 2.9147647-6.81265728 6.8126627zM462.13049959 926.32601705a85.98905764 85.98905764 0 0 1-7.46345828 15.57772809c-2.38166321-5.19257613-3.8909688-11.68675935-4.54177512-19.46870216h30.17925222c0.42925502 0 0.65080092-0.10385177 0.65080094-0.32539781a2.56167164 2.56167164 0 0 0-0.32540315-0.97620416 23.15888591 23.15888591 0 0 0-8.11426448-6.16878009c-0.43617877-0.42925502-0.86542842-0.42925502-1.30160189 0a56.69600535 56.69600535 0 0 0-4.86717829 5.84337696h-16.22852918a18.35402725 18.35402725 0 0 1-0.32540315-3.57249482v-5.19257599c0-1.94548436 0.21462754-4.54177509 0.65080638-7.78886144 0.21462754-1.30160726 0.32540318-2.38166321 0.3253978-3.24709164 0.21462754-0.42925502 0.7546528-1.08005596 1.62008664-1.94548439 0.42925502-0.65080092 0.7546528-1.08005596 0.9762041-1.30160724 0.42925502-0.65080092 0.32540318-1.08005596-0.32540322-1.30160193a75.90853722 75.90853722 0 0 0-9.73434576-1.62008664h-0.32540318c-0.65080092 0-0.97620405 0.43617877-0.97620407 1.30160728v20.44490103c0 1.30160726 0.10385177 2.70706101 0.32540317 4.21637201h-12.33064182v-11.36135623c0.42925502-0.21462754 1.18390779-0.7546528 2.27088748-1.62008123 0.42925502-0.65080092 0.54002525-0.7546528 0.32540319-0.32540316 0.21462754-0.42925502 0.21462754-0.7546528 0-0.97620409a28.17837723 28.17837723 0 0 1 7.46346361-0.97620407c0.42925502-0.42925502 0.54002525-0.86542842 0.32539774-1.30160735a36.76343966 36.76343966 0 0 1-2.92168852-2.27088747l-6.49417796-5.19257601c-0.43617877-0.21462754-0.86542842-0.10385177-1.30160723 0.32540308a77.45246192 77.45246192 0 0 1-28.55916554 12.65603959c-0.21462754 0.43617877-0.21462754 0.76157661 0 0.97620411a170.45495667 170.45495667 0 0 0 21.09570195-2.59629068v12.65603966h-18.82481977a10.75901659 10.75901659 0 0 0-2.59628535-0.32540316l1.62008122 2.27088756c3.46171915-0.21462754 5.29642787-0.32540318 5.51797919-0.32539776h14.27612097v13.63223841c-11.68675935 2.81091278-18.61019227 4.0086682-20.77030427 3.57249476h-0.65080097c0 0.21462754 0.10385177 0.54002525 0.32540319 0.97620406 1.50931097 4.32714766 2.70013718 7.68501488 3.5724894 10.05974896 0.21462754 0.21462754 0.65080092 0.32540318 1.30160732 0.32540315 1.94548436-1.08005596 4.65254541-2.59628539 8.11426451-4.5417751 3.6763413-1.94548436 6.37648391-3.35094347 8.11426456-4.21637197v19.150223c-1.73085695 0.43617877-5.40720356 0.21462754-11.03595301-0.65080635-0.21462754-0.21462754-0.43617877-0.10385177-0.65080628 0.32540317 0 0.43617877 0.10385177 0.65080092 0.32540312 0.650801 3.8909688 0.42925502 6.81265726 2.81091278 8.7650708 7.13806036a2.14626418 2.14626418 0 0 0 0.97620405 0.97620416c5.84337697-0.43617877 9.08354478-1.94548436 9.73434587-4.54176972a1337.91910137 1337.91910137 0 0 1-0.32539775-25.96288022v-1.30160738l10.38514669-5.51797375c0.21462754-0.21462754 0.10385177-0.42925502-0.3253978-0.6508063l-10.05974889 2.27088754v-11.68675936h12.33063646c0.65080092 10.1705246 2.81091278 19.3648451 6.49417797 27.58296689a81.27419792 81.27419792 0 0 1-15.57772817 14.27612081c-0.21462754 0.65080092 0 0.86542842 0.65080632 0.65080088a53.01966404 53.01966404 0 0 0 18.17401352-9.73434567c5.62183104 7.78886133 12.65603962 12.3306365 21.09570736 13.63224367 4.54177509 0 6.5980351-1.51623473 6.16878007-4.54177504-3.2470917-4.32714766-3.46171915-10.1705246-0.65080623-17.52321251-0.21462754-0.42925502-0.54002525-0.54002525-0.97620421-0.32540321-3.46171915 9.30509618-5.51797924 13.41761625-6.16878014 12.33063656-4.11252009-0.42925502-8.4396677-3.78019317-12.98143744-10.05974895a123.02251001 123.02251001 0 0 0 11.36135625-14.92692727l2.92168847-0.65080092c0.65080092-0.21462754 0.7546528-0.65080092 0.32540323-1.30160725a28.3030005 28.3030005 0 0 1-3.57249481-2.27088215 55.2905462 55.2905462 0 0 0-6.49418339-3.57249486c-0.63695327 0.01384763-0.96235647 0.12462332-0.96235644 0.33925075z" fill="#CACACA" /><path d="M455.31091851 900.36313675c2.16011191 1.51623473 3.35094347 4.11252009 3.57248939 7.78886149 0 1.73085695 0.21462754 3.03246417 0.65080629 3.89096883 1.08005596 2.38166321 3.0255403 3.13631595 5.843377 2.27088752 2.81091278-1.30160726 4.10559632-3.2470917 3.89096883-5.84337695-1.08697985-4.75639721-5.62875489-7.6780911-13.63223835-8.76507086-0.43617877 0.00692388-0.54002525 0.22155123-0.32540316 0.65772997zM560.7894445 902.63402441c0.86542842-0.42925502 0.97620405-1.08005596 0.3253978-1.94548979a80.93494709 80.93494709 0 0 0-9.73434584-7.46345817h-1.30160723a61.93012427 61.93012427 0 0 0-5.84337708 7.78886132h-58.4199437a12.16447564 12.16447564 0 0 0-2.92168848-0.32540315l1.62008663 2.27088753a50.40260196 50.40260196 0 0 1 5.51797378-0.32539774h29.53537509c-9.08354478 21.85728397-20.88107977 38.51506804-35.37182831 49.9802707-0.43617877 0.21462754-0.54002525 0.54002525-0.32540312 0.9762041 0.21462754 0.43617877 0.54002525 0.54002525 0.97620417 0.3254032 11.03595308-5.84337697 21.95421191-14.60152405 32.77554283-26.28828343l-0.32540317 2.59629078-0.65080093 40.23900103c0.21462754 1.30160726 1.94548436 1.8347087 5.19257597 1.6200813 3.6763413-0.43617877 5.62183104-1.30160726 5.84337705-2.59628539l-0.65080632-39.26972082v-8.43966765c1.50931097-0.42925502 2.05626009-0.97620405 1.62008658-1.62008128-0.43617877-0.86542842-1.73085695-1.50931097-3.89096882-1.94548974 2.38166321-3.2470917 4.2163719-6.37648391 5.51797392-9.40894262a6.71572926 6.71572926 0 0 0 3.89097411-1.94548977c0.65080092-0.42925502 0.65080092-0.86542842 0-1.30160195a24.39818415 24.39818415 0 0 0-5.84338232-2.92168846h32.46398739z" fill="#CACACA" /><path d="M532.23027351 925.67521075c5.62183104 4.32714766 11.36135622 11.57598371 17.19781471 21.74650827 1.08005596 1.94548436 1.94548436 3.35786733 2.59628539 4.216372 2.59628539 3.2470917 5.29642787 3.68326507 8.11426454 1.30160725 2.59628539-2.59628539 3.0255403-5.84337697 1.30160728-9.73435113-4.32714766-7.78886133-13.95764159-13.95764159-28.88456879-18.49941668-0.65080092-0.00692388-0.76157661 0.31847929-0.32540313 0.96928029zM585.77612055 924.37360889c0-0.21462754 0.65080092-0.54002525 1.94548453-0.97620415 1.08005596-0.42925502 1.62008129-0.7546528 1.6200811-0.97620942 0-0.65080092-0.11077565-0.97620405-0.32540307-0.97620413-3.68326507-3.0255403-6.27955577-4.75639721-7.78886147-5.19257602-0.65080092-0.42925502-1.08697985-0.42925502-1.30160715 0l-1.30160191 1.30160723-2.27088762 2.27088756h-6.81266265c-1.73085695-0.21462754-2.92168852-0.21462754-3.57248945 0l1.62008131 1.94548439h9.40894787v31.80625722l-0.65080086 0.3254032c-1.51623473 0.86542842-2.27088752 1.62008129-2.27088759 2.27088747a1.3985353 1.3985353 0 0 0 0 1.30160203c0.42925502 0.65080092 1.73085695 2.38166321 3.89096885 5.19257601 1.30160726 1.73085695 2.05626009 2.81091278 2.27088753 3.24709161 0.21462754 0.21462754 0.65080092 0.21462754 1.30160725 0h0.32539781c1.30160726-1.51623473 3.35094347-3.68326507 6.16878017-6.49417794 6.70188705-7.78886133 11.79061117-13.3068406 15.2523303-16.55393229-0.21462754-0.86542842-0.43617877-1.18390779-0.65080628-0.97620407-1.30160726 0.65080092-6.92343295 3.68326507-16.87933007 9.0835448v-26.5998335h0.0207714zM574.42168821 896.4652442c2.38166321 1.08697985 3.8909688 3.68326507 4.54176973 7.78886143 0 0.43617877 0.10385177 0.97620405 0.32540315 1.6200813 0.21462754 0.86542842 0.32540318 1.41238289 0.32539781 1.62008656 1.73085695 3.2470917 4.2163719 4.11252009 7.46346365 2.59628539 2.59628539-1.94548436 3.0255403-4.75639721 1.30160719-8.4396624-2.16703572-3.8909688-6.60495891-5.94722884-13.30684057-6.16878014-0.44309731 0.22847518-0.65080092 0.55387293-0.65080096 0.98312786z" fill="#CACACA" /><path d="M618.55858198 900.36313675c-0.21462754-0.65080092 0.21462754-1.18390779 1.30160185-1.62008651a3.77326932 3.77326932 0 0 0 0.97620411-0.650801c0.65080092-0.86542842 0.54002525-1.50931097-0.32539787-1.94548428-3.03246417-1.30160726-6.92343295-2.16011191-11.6867593-2.59629074-0.43617877 0-0.65080092 0.32540318-0.65080101 0.97620413 0 0.43617877 0.10385177 0.97620405 0.32539785 1.62008661 0.42925502 2.38166321 0.65080092 4.0086682 0.65080631 4.86717281 1.08005596 17.09395761-0.11077565 30.61542569-3.57249474 40.5644043-3.2470917 9.73435111-9.95589711 18.71404417-20.11949789 26.93908438-0.43617877 0.42925502-0.54002525 0.86542842-0.32540316 1.30160183 0.21462754 0.65080092 0.54002525 0.86542842 0.97620402 0.65080631 20.98493169-8.65429517 31.69548159-26.82830866 32.13166042-54.52204584 2.16011191 22.93733996 7.57423929 40.03129741 16.22852917 51.27495415 0.42925502 0.65080092 1.08005596 0.7546528 1.94548441 0.32540321l0.32540311-0.32540321a12.03292859 12.03292859 0 0 1 8.76507087-5.19257607c0.42925502 0 0.7546528-0.21462754 0.97620404-0.65080082 0-0.21462754-0.21462754-0.54002525-0.65080631-0.97620421-15.3631006-12.76681531-24.45356929-31.04468065-27.26448215-54.84744893l-0.00692373-5.19257612zM723.05397998 902.95942215a41.54753219 41.54753219 0 0 0-8.11426985-5.51797382c-0.43617877-0.42925502-0.86542842-0.42925502-1.30160193 0a66.62421258 66.62421258 0 0 0-3.24709165 3.57248944h-17.19780933v-0.32540315c-1.51623473-0.86542842-4.65254541-1.94548436-9.40894801-3.24708629-0.43617877 0-0.76157661 0.32540318-0.97620411 0.97620406V918.53715033a486.48897495 486.48897495 0 0 0-0.32540315 14.60152404c1.50931097 3.2470917 4.54177509 2.92168852 9.08354482-0.97620412v-1.94548437h20.44490103v2.59628538c1.73085695 3.2470917 4.65254541 3.03246417 8.76507082-0.65080101v-26.93908427c0.21462754 0 0.42925502-0.10385177 0.65080097-0.32540323 0.65080092-0.21462754 1.18390779-0.42925502 1.62008661-0.6508009 0.44309731-0.42233116 0.44309731-0.85158082 0.00692378-1.2877597z m-11.02903456 25.63747718h-20.44490103v-25.31207401l1.30160725-0.65080091h19.1502176v25.96287492zM689.62763618 939.63285762l-0.32540322 0.32539783c-3.03246417 11.68675935-8.76506551 21.63573264-17.19780932 29.85384906 0.21462754 0.65080092 0.42925502 0.97620405 0.65080095 0.97620943 10.38515204-5.84337697 18.60326841-14.0614934 24.661273-24.66127825 0.65080092-0.42925502 1.30160726-0.7546528 1.94548979-0.97620413l0.97620404-0.65080109c0.42925502-0.21462754 0.42925502-0.65080092 0-1.30160714-0.21462754 0-0.65080092-0.21462754-1.30160721-0.65080096-3.46171915-1.50931097-6.27955577-2.59628539-8.43966775-3.24709167-0.42925502-0.20770366-0.7546528-0.10385177-0.96928028 0.33232692zM707.47625182 941.90374514c6.05800452 8.00348891 9.19432051 15.3631006 9.40894805 22.07190611 1.30160726 3.8909688 3.78019317 5.40720356 7.4634582 4.5417752 3.6763413-1.94548436 4.86717291-5.08872412 3.57249479-9.408948-2.16703572-6.05800452-8.65429517-12.3306365-19.46869685-18.82481985-0.65080092 0.64387715-0.97620405 1.18390779-0.97620419 1.62008654zM669.83353606 923.72972643c0-0.21462754 0.32540318-0.65080092 0.97620416-1.30160726s0.97620405-1.08005596 0.97620412-1.30160186v-0.3254032c0.21462754-0.42925502 0.21462754-0.7546528 0-0.97620415-2.59628539-1.94548436-4.86717291-3.2470917-6.81265736-3.89096879-0.65080092 0-0.97620405 0.11077565-0.97620407 0.32539782a11.04980067 11.04980067 0 0 0-1.30160719 1.6200866c-0.86542842 1.08697985-1.51623473 1.62008129-1.94548445 1.62008116h-8.11426459a14.01303207 14.01303207 0 0 0-2.27088754-0.32539777l1.62008125 2.27088221 4.54177515-0.32539775h5.51797921v33.7517416a8.24581165 8.24581165 0 0 0-2.27088761 1.3016072c-0.65080092 0.43617877-0.76157661 0.86542842-0.32540317 1.30160203l3.24709175 4.8671782c1.30160726 1.94548436 2.05626009 3.13631595 2.27088749 3.57248942 0.42925502 0.42925502 0.7546528 0.42925502 0.97620404 0 1.94548436-2.16703572 7.35268798-9.08354478 16.22852916-20.77030417 0-0.65080092-0.32540318-0.86542842-0.97620413-0.65080099-1.30160726 0.65080092-5.08872412 2.70706101-11.36135622 6.16878022v-26.93216052zM657.82137889 893.86895349c2.38166321 1.94548436 4.0017445 4.54177509 4.86717301 7.78886682 0.21462754 0.65080092 0.32540318 1.51623473 0.32540313 2.59628532v1.6200813c1.50931097 3.2470917 3.78019317 4.32714766 6.81265718 3.2470916 3.0255403-1.73085695 4.10559632-4.2163719 3.24709169-7.46345822-2.16703572-4.54177509-7.0342086-7.57423929-14.60152394-9.08355017-0.65080092 0.43617877-0.86542842 0.86542842-0.65080107 1.29468335zM788.28657572 954.88518268v-31.48085942c0.65080092-0.21462754 1.30160726-0.54002525 1.94548435-0.97620409v-0.32539782c0-0.42925502-0.11077565-0.7546528-0.32539781-0.97620404-1.73085695-1.08005596-5.08872412-1.73085695-10.05974892-1.94548442v39.92052177c0.42925502 2.16703572-3.8909688 2.92168852-12.98144277 2.27088751-0.65080092 0.21462754-0.76157661 0.7546528-0.32540317 1.62008122 6.70188705 1.50931097 10.1705246 4.32714766 10.38515213 8.43966769 0.21462754 0.42925502 0.65080092 0.7546528 1.30160719 0.97620412 6.70188705-0.43617877 10.1705246-2.81091278 10.3851521-7.13806041l-0.3254031-10.38515211zM749.34225808 892.89967328c-4.54177509 19.46869694-10.38515204 33.64788981-17.52321263 42.51681244-0.21462754 0.65080092 0 0.97620405 0.65080095 0.97620413 4.54177509-3.2470917 8.76506551-7.46346357 12.65603965-12.65603965v32.77553751c0 2.38166321-0.11077565 5.19257613-0.32540304 8.43966767-0.21462754 3.2470917-0.21462754 5.29642787 0 6.16878021 0.21462754 0.86542842 1.62008129 1.18390779 4.2163719 0.9762041 3.0255403-0.65080092 4.65254541-1.51623473 4.86717817-2.59628541v-52.25116354c0.86542842-0.65080092 1.40545916-1.18390779 1.62008131-1.62008131v-0.32540317c0-0.42925502-0.11077565-0.7546528-0.32540317-0.97620405-0.21462754-0.21462754-0.76157661-0.32540318-1.62008129-0.32540313a5.41412737 5.41412737 0 0 0-1.62008116-0.32539783c2.16011191-3.8909688 3.57249481-6.5980351 4.21637188-8.11426455 1.08005596-1.73085695 1.8347087-3.0255403 2.27088227-3.89097412 0.21462754-0.42925502 0.7546528-0.86542842 1.62008659-1.30160193 0.65080092-0.42925502 1.08005596-0.7546528 1.30160188-0.9762041 0.21462754-0.42925502 0.10385177-0.86542842-0.32539783-1.30160731a48.46404128 48.46404128 0 0 0-10.38515207-5.5179791c-0.86542842 0-1.29468346 0.11077565-1.29468341 0.32540314z" fill="#CACACA" /><path d="M800.29873823 910.7482889a58.95996909 58.95996909 0 0 1-2.59629071 3.89096882h-24.98667616c2.16011191-3.46171915 4.43099949-8.00348891 6.81266272-13.63224373 1.94548436-1.08005596 3.35094347-1.8347087 4.2163719-2.27088758 0.42925502-0.86542842 0.42925502-1.30160726 0-1.30160183-5.84337697-2.38166321-9.84512146-4.0017445-12.00523875-4.86717829-1.08697985-0.42925502-1.62008129-0.32540318-1.62008113 0.32540314-2.38166321 16.44315659-6.81265726 29.42459409-13.30684061 38.94431771-0.21462754 0.43617877-0.21462754 0.76157661 0 0.97620412 0.21462754 0.21462754 0.42925502 0.21462754 0.65080091 0 4.54177509-3.2470917 9.29817238-8.65429517 14.27612083-16.22852916h26.93908435c-1.94548436 5.19257613-3.35786733 8.87584114-4.21637192 11.03595307 0 0.43617877 0.10385177 0.76157661 0.32540313 0.97620416 0.21462754 0 0.42925502-0.10385177 0.65080101-0.32539783a40.93826879 40.93826879 0 0 1 7.46346354-5.84338233c2.16011191-1.08005596 5.19257613-1.62008129 9.08354486-1.62008129 0.86542842-0.65080092 1.08005596-1.50931097 0.65080634-2.59629067a80.36030281 80.36030281 0 0 1-4.86717827-3.24708629 185.7488245 185.7488245 0 0 1-6.16878014-4.21637202c-0.65772473-0.43617877-1.09390356-0.43617877-1.3016019 0z" fill="#CACACA" /><path d="M766.54699122 929.24770557c-1.73085695 11.25058051-5.19257613 21.09570734-10.38515207 29.53536968-0.43617877 0.86542842-0.21462754 1.08697985 0.65080634 0.65080095 7.35268798-5.84337697 13.52146815-13.84687122 18.49941663-24.01739048a20.2164313 20.2164313 0 0 0 2.27088754-1.30160727c0.42925502-0.42925502 0.42925502-0.86542842 0-1.30160719-4.11252009-1.94548436-7.35961178-3.2470917-9.73435117-3.89096886-0.87235227-0.21462754-1.30160726-0.11077565-1.30160727 0.32540317zM791.53366743 932.16939415c5.19257613 5.19257613 8.00348891 10.92517742 8.43966765 17.19780938 0.42925502 2.81091278 0.86542842 4.86717291 1.30160729 6.16878003 1.30160726 2.81091278 3.78019317 3.13631595 7.46345823 0.97620415 2.59628539-1.94548436 3.46171915-4.75639721 2.59629067-8.43966239-1.30160726-6.70188705-7.68501488-12.21986086-19.15021765-16.55393213-0.65080092-0.21462754-0.87235227 0-0.65080619 0.65080096zM844.43563191 903.28482532c-2.38166321-1.50931097-5.3033517-2.38166321-8.76507083-2.5962907h-2.27088222c-6.92343295 0.65080092-11.25058051 4.11252009-12.98144268 10.38515206v0.9762041c0.42925502 3.03246417 2.16011191 4.76332107 5.19257603 5.19257614h1.30160726c4.54177509-1.08005596 5.84337697-4.10559632 3.89096873-9.08354482-0.43617877-0.65080092-1.30160726-1.30160726-2.59628539-1.94548435a2.56167164 2.56167164 0 0 0-0.97620407-0.3254032c0.86542842-1.73085695 2.38166321-2.59628539 4.54176979-2.59628533h0.976204c3.46171915 0.65080092 5.40720356 3.46171915 5.84338241 8.4396677 0 3.46171915-0.97620405 7.78886133-2.92169386 12.98143736-2.16703572 5.19257613-3.2470917 9.51972363-3.24708623 12.98144287v2.92168845h1.94548432c0-2.38166321 0.54002525-4.54177509 1.62008127-6.49418332 0.42925502-1.50931097 1.30160726-3.0255403 2.59629071-4.54177511 1.94548436-2.59628539 4.10559632-4.97794857 6.49417791-7.13806043 0.42925502-0.42925502 0.97620405-1.08005596 1.62008661-1.94548434 0.86542842-0.86542842 1.40545916-1.50931097 1.62008124-1.94548438a37.94042365 37.94042365 0 0 0 1.62008649-4.54177514v-1.62008122c-0.20770366-3.47556687-2.04933627-6.50803094-5.50413149-9.10431634zM834.05047978 949.36720353h-0.65080092c-3.2470917 0.43617877-4.97794857 2.27088752-5.19257605 5.51797915v0.32540312c0.42925502 2.81091278 2.16011191 4.54177509 5.19257605 5.192576h0.97620416c3.0255403-0.42925502 4.75639721-2.16011191 5.19257605-5.192576v-0.65080632c-0.22155123-3.0255403-2.06318384-4.75639721-5.51797929-5.19257595z" fill="#CACACA" /></svg>