<?xml version="1.0" standalone="no"?><!DOCTYPE svg PUBLIC "-//W3C//DTD SVG 1.1//EN" "http://www.w3.org/Graphics/SVG/1.1/DTD/svg11.dtd"><svg t="1535941738273" class="icon" style="" viewBox="0 0 1024 1024" version="1.1" xmlns="http://www.w3.org/2000/svg" p-id="5711" xmlns:xlink="http://www.w3.org/1999/xlink" width="200" height="200"><defs><style type="text/css"></style></defs><path d="M88.267856 512a3059.307384 3059.307384 0 0 1 23.218199-365.49316A150.37654 150.37654 0 0 1 249.982617 14.472678Q405.738039 3.173154 510.219938 3.134457T773.939989 14.550072a150.453934 150.453934 0 0 1 138.573956 132.150253 3082.486887 3082.486887 0 0 1 23.218199 366.499282 3048.123951 3048.123951 0 0 1-23.218199 364.216159A150.492631 150.492631 0 0 1 773.939989 1009.449928q-158.11594 11.6091-261.166049 11.415615t-262.791323-11.6091a150.415237 150.415237 0 0 1-138.496562-131.956768 3062.906205 3062.906205 0 0 1-23.218199-365.299675z" fill="" p-id="5712"></path><path d="M88.267856 512a3059.307384 3059.307384 0 0 1 23.218199-365.49316A150.37654 150.37654 0 0 1 249.982617 14.472678Q405.738039 3.173154 510.219938 3.134457T773.939989 14.550072a150.453934 150.453934 0 0 1 138.573956 132.150253 3082.486887 3082.486887 0 0 1 23.218199 366.499282 3048.123951 3048.123951 0 0 1-23.218199 364.216159A150.492631 150.492631 0 0 1 773.939989 1009.449928q-158.11594 11.6091-261.166049 11.415615t-262.791323-11.6091a150.415237 150.415237 0 0 1-138.496562-131.956768 3062.906205 3062.906205 0 0 1-23.218199-365.299675z" fill="#F0F2F5" p-id="5713"></path><path d="M241.701459 510.026453q0-121.315093 10.254705-242.59149A94.072406 94.072406 0 0 1 334.612954 181.875898a1500.824427 1500.824427 0 0 1 352.142696 0 93.995012 93.995012 0 0 1 82.695487 85.520368q10.254705 122.708185 10.293402 244.294158t-10.216008 242.398005A94.033709 94.033709 0 0 1 686.949135 839.724889a1509.531252 1509.531252 0 0 1-176.458318 10.409492A1496.335576 1496.335576 0 0 1 334.690348 839.724889a94.111103 94.111103 0 0 1-82.695487-85.520369q-10.254705-122.553397-10.293402-244.178067z" fill="#A3B1BF" p-id="5714"></path><path d="M713.263094 350.865694h59.3225v67.83584h-59.3225a25.423929 25.423929 0 0 1-25.423928-25.423928v-16.987983a25.423929 25.423929 0 0 1 25.423928-25.423929z" fill="" p-id="5715"></path><path d="M713.263094 350.865694h59.3225v67.83584h-59.3225a25.423929 25.423929 0 0 1-25.423928-25.423928v-16.987983a25.423929 25.423929 0 0 1 25.423928-25.423929z" fill="#F0F2F5" p-id="5716"></path><path d="M834.03643 350.865694H774.713929v67.83584h59.322501a25.423929 25.423929 0 0 0 25.423928-25.423928v-16.987983a25.423929 25.423929 0 0 0-25.423928-25.423929z" fill="" p-id="5717"></path><path d="M834.03643 350.865694H774.713929v67.83584h59.322501a25.423929 25.423929 0 0 0 25.423928-25.423928v-16.987983a25.423929 25.423929 0 0 0-25.423928-25.423929z" fill="#F0F2F5" p-id="5718"></path><path d="M744.336785 425.666994h38.696999v-11.144736c0.541758 1.315698-17.607135 0-27.474869 0l6.694581-23.527775a17.80062 17.80062 0 0 0-17.839317 17.723225z m45.894641-9.442068l-0.270879-3.598821c-10.989948 1.896153-21.089865 0-35.756027 0l8.12637-30.183659a26.430051 26.430051 0 0 0-26.546142 26.313959v7.507218h-1.625274a7.7394 7.7394 0 0 0-7.7394 7.7394v26.159172a30.9576 30.9576 0 0 0 30.9576 31.151084h13.079585a30.9576 30.9576 0 0 0 30.9576-31.151084v-26.159172a7.7394 7.7394 0 0 0-7.7394-7.7394z" fill="#D4DBE2" p-id="5719"></path><path d="M717.519764 383.177689m-8.474643 0a8.474643 8.474643 0 1 0 16.949286 0 8.474643 8.474643 0 1 0-16.949286 0Z" fill="#F5F5F5" p-id="5720"></path><path d="M723.672587 389.562694l-10.099917-15.053133-3.676215 6.152823-0.464364 8.90031h14.240496z" fill="#D9D9D9" p-id="5721"></path><path d="M829.121911 383.177689m-8.474643 0a8.474643 8.474643 0 1 0 16.949286 0 8.474643 8.474643 0 1 0-16.949286 0Z" fill="#F5F5F5" p-id="5722"></path><path d="M835.274734 389.562694l-10.099917-15.053133-3.676215 6.152823-0.464364 8.90031h14.240496z" fill="#D9D9D9" p-id="5723"></path><path d="M742.711511 414.057894v-6.19152a29.525811 29.525811 0 0 1 20.393319-28.171415v13.853526a16.987983 16.987983 0 0 0-7.236339 13.930919v6.57849H789.418789v-6.57849a16.987983 16.987983 0 0 0-4.914519-11.957372v-14.31789a29.525811 29.525811 0 0 1 16.63971 26.662232v6.19152a7.7394 7.7394 0 0 1 7.7394 7.7394v27.0879a31.151085 31.151085 0 0 1-31.151085 30.957599h-13.040888a31.189782 31.189782 0 0 1-30.9576-30.957599v-27.0879a7.7394 7.7394 0 0 1 7.7394-7.7394h1.663971z" fill="#F0F2F5" p-id="5724"></path><path d="M767.593682 444.473736a6.771975 6.771975 0 1 1 7.545914 0l3.8697 10.564281a2.399214 2.399214 0 0 1-1.431789 3.057063 2.940972 2.940972 0 0 1-0.812637 0H766.20059a2.360517 2.360517 0 0 1-2.360517-2.360517 2.940972 2.940972 0 0 1 0-0.812637z" fill="#A3B1BF" p-id="5725"></path><path d="M344.403295 303.964931m-8.474643 0a8.474643 8.474643 0 1 0 16.949286 0 8.474643 8.474643 0 1 0-16.949286 0Z" fill="#F5F5F5" p-id="5726"></path><path d="M350.556118 310.349936l-10.099917-15.053133-3.676215 6.152823-0.464364 8.90031h14.240496z" fill="#A3B1BF" p-id="5727"></path><path d="M684.936891 303.964931m-8.474643 0a8.474643 8.474643 0 1 0 16.949286 0 8.474643 8.474643 0 1 0-16.949286 0Z" fill="#F5F5F5" p-id="5728"></path><path d="M691.089714 310.349936l-10.099917-15.053133-3.676215 6.152823-0.464364 8.90031h14.240496z" fill="#A3B1BF" p-id="5729"></path><path d="M317.315396 478.101428m-8.474643 0a8.474643 8.474643 0 1 0 16.949286 0 8.474643 8.474643 0 1 0-16.949286 0Z" fill="#F5F5F5" p-id="5730"></path><path d="M323.468219 484.486433l-10.099917-15.053132-3.676215 6.152822-0.464364 8.90031h14.240496z" fill="#A3B1BF" p-id="5731"></path><path d="M317.315396 543.886328m-8.474643 0a8.474643 8.474643 0 1 0 16.949286 0 8.474643 8.474643 0 1 0-16.949286 0Z" fill="#F5F5F5" p-id="5732"></path><path d="M323.468219 550.271332l-10.099917-15.053132-3.676215 6.152823-0.464364 8.900309h14.240496z" fill="#A3B1BF" p-id="5733"></path><path d="M344.403295 733.501625m-8.474643 0a8.474643 8.474643 0 1 0 16.949286 0 8.474643 8.474643 0 1 0-16.949286 0Z" fill="#F5F5F5" p-id="5734"></path><path d="M350.556118 739.88663l-10.099917-15.053133-3.676215 6.152823-0.464364 8.90031h14.240496z" fill="#A3B1BF" p-id="5735"></path><path d="M456.624594 752.850125m-8.474643 0a8.474643 8.474643 0 1 0 16.949286 0 8.474643 8.474643 0 1 0-16.949286 0Z" fill="#F5F5F5" p-id="5736"></path><path d="M462.777417 759.23513l-10.099917-15.053133-3.676215 6.152823-0.464364 8.90031h14.240496z" fill="#A3B1BF" p-id="5737"></path><path d="M568.845892 752.850125m-8.474643 0a8.474643 8.474643 0 1 0 16.949286 0 8.474643 8.474643 0 1 0-16.949286 0Z" fill="#F5F5F5" p-id="5738"></path><path d="M574.998715 759.23513l-10.099917-15.053133-3.676215 6.152823-0.464364 8.90031h14.240496z" fill="#A3B1BF" p-id="5739"></path><path d="M684.936891 733.501625m-8.474643 0a8.474643 8.474643 0 1 0 16.949286 0 8.474643 8.474643 0 1 0-16.949286 0Z" fill="#F5F5F5" p-id="5740"></path><path d="M691.089714 739.88663l-10.099917-15.053133-3.676215 6.152823-0.464364 8.90031h14.240496z" fill="#A3B1BF" p-id="5741"></path><path d="M717.519764 383.177689m-8.474643 0a8.474643 8.474643 0 1 0 16.949286 0 8.474643 8.474643 0 1 0-16.949286 0Z" fill="#F5F5F5" p-id="5742"></path><path d="M723.672587 389.562694l-10.099917-15.053133-3.676215 6.152823-0.464364 8.90031h14.240496z" fill="#A3B1BF" p-id="5743"></path><path d="M829.121911 383.177689m-8.474643 0a8.474643 8.474643 0 1 0 16.949286 0 8.474643 8.474643 0 1 0-16.949286 0Z" fill="#F7FAFC" p-id="5744"></path><path d="M835.274734 389.562694l-10.099917-15.053133-3.676215 6.152823-0.464364 8.90031h14.240496z" fill="#A3B1BF" p-id="5745"></path><path d="M201.95964 169.260676m-16.949286 0a16.949286 16.949286 0 1 0 33.898572 0 16.949286 16.949286 0 1 0-33.898572 0Z" fill="#F7FAFC" p-id="5746"></path><path d="M200.489154 185.513415l13.776132-3.482729-20.199834-30.106266-7.313733 12.305646 1.315698 16.175346 12.421737 5.108003z" fill="#A3B1BF" p-id="5747"></path><path d="M201.95964 865.806666m-16.949286 0a16.949286 16.949286 0 1 0 33.898572 0 16.949286 16.949286 0 1 0-33.898572 0Z" fill="#F7FAFC" p-id="5748"></path><path d="M200.489154 882.059406l13.776132-3.48273-20.199834-30.106266-7.313733 12.305646 1.315698 16.175346 12.421737 5.108004z" fill="#A3B1BF" p-id="5749"></path><path d="M515.405336 939.330965m-16.949286 0a16.949286 16.949286 0 1 0 33.898572 0 16.949286 16.949286 0 1 0-33.898572 0Z" fill="#F7FAFC" p-id="5750"></path><path d="M513.93485 955.583705l13.776132-3.48273-20.199834-30.106266-7.313733 12.305646 1.315698 16.175346 12.421737 5.108004z" fill="#A3B1BF" p-id="5751"></path><path d="M821.111632 869.676366m-16.949286 0a16.949286 16.949286 0 1 0 33.898572 0 16.949286 16.949286 0 1 0-33.898572 0Z" fill="#F7FAFC" p-id="5752"></path><path d="M819.641146 885.929106l13.776132-3.48273-20.199834-30.106266-7.313733 12.305646 1.315698 16.175346 12.421737 5.108004z" fill="#A3B1BF" p-id="5753"></path><path d="M161.018215 524.112161m-16.949286 0a16.949286 16.949286 0 1 0 33.898572 0 16.949286 16.949286 0 1 0-33.898572 0Z" fill="#F7FAFC" p-id="5754"></path><path d="M159.547729 540.364901l13.776132-3.48273-20.199834-30.106266-7.313733 12.305646 1.315698 16.136649 12.421737 5.146701z" fill="#A3B1BF" p-id="5755"></path><path d="M513.238304 102.392261m-16.949286 0a16.949286 16.949286 0 1 0 33.898572 0 16.949286 16.949286 0 1 0-33.898572 0Z" fill="#F7FAFC" p-id="5756"></path><path d="M511.806515 118.645l13.776132-3.48273-20.199834-30.144962-7.35243 12.344343 1.315698 16.136648 12.460434 5.146701z" fill="#A3B1BF" p-id="5757"></path><path d="M821.305117 168.525433m-16.949286 0a16.949286 16.949286 0 1 0 33.898572 0 16.949286 16.949286 0 1 0-33.898572 0Z" fill="#F5F5F5" p-id="5758"></path><path d="M819.873328 184.778172l13.776132-3.482729-20.199834-30.144963-7.35243 12.344343 1.315698 16.136649 12.460434 5.1467z" fill="#A3B1BF" p-id="5759"></path><path d="M394.283728 269.331116h235.393847v94.227194H394.283728z" fill="" p-id="5760"></path><path d="M394.283728 269.331116h235.393847v94.227194H394.283728z" fill="#F0F2F5" p-id="5761"></path><path d="M549.65218 278.773184h70.622025v75.497846h-70.622025z" fill="#A3B1BF" p-id="5762"></path><path d="M534.366866 302.339657a3.521427 3.521427 0 0 1 3.521427 3.366639v24.340412a3.521427 3.521427 0 0 1-3.521427 3.521427 3.521427 3.521427 0 0 1-3.521427-3.521427V305.706296a3.521427 3.521427 0 0 1 3.521427-3.366639z" fill="#A3B1BF" p-id="5763"></path><path d="M549.497392 284.268158a4.682337 4.682337 0 0 1 4.721034 4.721034v53.401859a4.682337 4.682337 0 0 1-4.721034 4.682337 4.682337 4.682337 0 0 1-4.682336-4.682337v-53.401859a4.682337 4.682337 0 0 1 4.682336-4.721034z" fill="#A3B1BF" p-id="5764"></path><path d="M210.898647 344.403295h33.898572v118.761092H210.898647a25.423929 25.423929 0 0 1-25.423929-25.423929V369.904618A25.423929 25.423929 0 0 1 210.898647 344.403295z" fill="" p-id="5765"></path><path d="M210.898647 344.403295h33.898572v118.761092H210.898647a25.423929 25.423929 0 0 1-25.423929-25.423929V369.904618A25.423929 25.423929 0 0 1 210.898647 344.403295z" fill="#EAEFF3" p-id="5766"></path><path d="M217.515834 380.546293m-8.474643 0a8.474643 8.474643 0 1 0 16.949286 0 8.474643 8.474643 0 1 0-16.949286 0Z" fill="#F7FAFC" p-id="5767"></path><path d="M223.668657 386.931298l-10.099917-15.053133-3.676215 6.152823-0.464364 8.90031h14.240496z" fill="#A3B1BF" p-id="5768"></path><path d="M218.792835 428.491875m-8.474643 0a8.474643 8.474643 0 1 0 16.949286 0 8.474643 8.474643 0 1 0-16.949286 0Z" fill="#F7FAFC" p-id="5769"></path><path d="M224.945658 434.87688l-10.099917-15.053133-3.637518 6.152823-0.503061 8.90031h14.240496z" fill="#A3B1BF" p-id="5770"></path><path d="M350.749603 389.640088v28.480991a5.146701 5.146701 0 0 1-4.217973 5.262792l-93.259768 8.048976V376.289623l93.259768 8.087673a5.146701 5.146701 0 0 1 4.217973 5.262792z" fill="#F0F2F5" p-id="5771"></path><path d="M282.488096 404.577129m-8.474643 0a8.474643 8.474643 0 1 0 16.949286 0 8.474643 8.474643 0 1 0-16.949286 0Z" fill="#F7FAFC" p-id="5772"></path><path d="M288.640919 410.962134l-10.099917-15.053132-3.676215 6.152823-0.464364 8.900309h14.240496z" fill="#A3B1BF" p-id="5773"></path><path d="M321.185096 404.577129m-8.474643 0a8.474643 8.474643 0 1 0 16.949285 0 8.474643 8.474643 0 1 0-16.949285 0Z" fill="#F7FAFC" p-id="5774"></path><path d="M327.337919 410.962134l-10.099917-15.053132-3.676215 6.152823-0.464364 8.900309h14.240496z" fill="#A3B1BF" p-id="5775"></path><path d="M232.336785 369.943315l27.552263 0 0 67.83584-27.552263 0 0-67.83584Z" fill="" p-id="5776"></path><path d="M232.336785 369.943315l27.552263 0 0 67.83584-27.552263 0 0-67.83584Z" fill="#EAEFF3" p-id="5777"></path><path d="M210.898647 564.976192h33.898572v118.761092H210.898647a25.423929 25.423929 0 0 1-25.423929-25.423929v-67.83584A25.423929 25.423929 0 0 1 210.898647 564.976192z" fill="" p-id="5778"></path><path d="M210.898647 564.976192h33.898572v118.761092H210.898647a25.423929 25.423929 0 0 1-25.423929-25.423929v-67.83584A25.423929 25.423929 0 0 1 210.898647 564.976192z" fill="#EAEFF3" p-id="5779"></path><path d="M217.515834 601.11919m-8.474643 0a8.474643 8.474643 0 1 0 16.949286 0 8.474643 8.474643 0 1 0-16.949286 0Z" fill="#F7FAFC" p-id="5780"></path><path d="M223.668657 607.504195l-10.099917-15.053133-3.676215 6.152823-0.464364 8.90031h14.240496z" fill="#A3B1BF" p-id="5781"></path><path d="M218.792835 649.064772m-8.474643 0a8.474643 8.474643 0 1 0 16.949286 0 8.474643 8.474643 0 1 0-16.949286 0Z" fill="#F7FAFC" p-id="5782"></path><path d="M224.945658 655.449777l-10.099917-15.053133-3.637518 6.152823-0.503061 8.90031h14.240496z" fill="#A3B1BF" p-id="5783"></path><path d="M350.749603 610.212985v28.480991a5.146701 5.146701 0 0 1-4.217973 5.262792l-93.259768 8.048976v-55.143224l93.259768 8.087673a5.146701 5.146701 0 0 1 4.217973 5.262792z" fill="#F0F2F5" p-id="5784"></path><path d="M282.488096 625.150026m-8.474643 0a8.474643 8.474643 0 1 0 16.949286 0 8.474643 8.474643 0 1 0-16.949286 0Z" fill="#F7FAFC" p-id="5785"></path><path d="M288.640919 631.535031l-10.099917-15.053132-3.676215 6.152822-0.464364 8.90031h14.240496z" fill="#A3B1BF" p-id="5786"></path><path d="M321.185096 625.150026m-8.474643 0a8.474643 8.474643 0 1 0 16.949285 0 8.474643 8.474643 0 1 0-16.949285 0Z" fill="#F7FAFC" p-id="5787"></path><path d="M327.337919 631.535031l-10.099917-15.053132-3.676215 6.152822-0.464364 8.90031h14.240496z" fill="#A3B1BF" p-id="5788"></path><path d="M232.336785 590.516212l27.552263 0 0 67.83584-27.552263 0 0-67.83584Z" fill="" p-id="5789"></path><path d="M232.336785 590.516212l27.552263 0 0 67.83584-27.552263 0 0-67.83584Z" fill="#EAEFF3" p-id="5790"></path><path d="M698.403446 690.896229a86.952158 86.952158 0 1 1 86.874764-86.913461 86.913461 86.913461 0 0 1-86.874764 86.913461z m0-25.423929a61.489532 61.489532 0 1 0-61.450835-61.489532A61.489532 61.489532 0 0 0 698.403446 665.588391z" fill="#A3B1BF" p-id="5791"></path><path d="M706.568513 585.214723c-7.275036-0.890031-17.065377-2.128335-23.218199-3.211851-10.951251-1.93485-32.428086-7.197642-32.428086-7.197642l-3.057063 17.374953s22.05729 2.167032 32.969844 4.063185c5.262792 0.928728 13.040889 2.747487 19.658075 4.334064-3.8697 5.727156-8.203764 12.499131-11.376917 16.871892-6.539793 9.016401-20.702895 25.965687-20.702895 25.965686l14.31789 10.409493s11.6091-18.884136 18.071498-27.86184c3.289245-4.488852 8.51334-10.951251 12.924798-16.291436 3.8697 5.843247 8.319855 12.886101 11.106039 17.684528 5.533671 9.635553 15.4788 29.487114 15.4788 29.487114l15.4788-8.861613s-12.537828-18.264984-18.071499-27.861839c-2.940972-5.03061-6.96546-12.963495-10.138614-19.3485 6.926763-1.857456 15.672285-4.140579 21.399441-5.340186 10.873857-2.32182 32.737662-5.456277 32.737661-5.456277L777.809689 572.715592s-21.244653 6.268914-32.079812 8.590734c-5.998035 1.277001-15.4788 2.747487-22.715139 3.8697-0.38697-7.313733-0.851334-16.949286-0.851334-23.2182 0-11.144736 1.470486-33.163329 1.470486-33.163328h-17.684529s1.741365 22.095987 1.741365 33.163328c-0.077394 6.152823-0.619152 15.904467-1.122213 23.256897z" fill="" p-id="5792"></path><path d="M706.568513 585.214723c-7.275036-0.890031-17.065377-2.128335-23.218199-3.211851-10.951251-1.93485-32.428086-7.197642-32.428086-7.197642l-3.057063 17.374953s22.05729 2.167032 32.969844 4.063185c5.262792 0.928728 13.040889 2.747487 19.658075 4.334064-3.8697 5.727156-8.203764 12.499131-11.376917 16.871892-6.539793 9.016401-20.702895 25.965687-20.702895 25.965686l14.31789 10.409493s11.6091-18.884136 18.071498-27.86184c3.289245-4.488852 8.51334-10.951251 12.924798-16.291436 3.8697 5.843247 8.319855 12.886101 11.106039 17.684528 5.533671 9.635553 15.4788 29.487114 15.4788 29.487114l15.4788-8.861613s-12.537828-18.264984-18.071499-27.861839c-2.940972-5.03061-6.96546-12.963495-10.138614-19.3485 6.926763-1.857456 15.672285-4.140579 21.399441-5.340186 10.873857-2.32182 32.737662-5.456277 32.737661-5.456277L777.809689 572.715592s-21.244653 6.268914-32.079812 8.590734c-5.998035 1.277001-15.4788 2.747487-22.715139 3.8697-0.38697-7.313733-0.851334-16.949286-0.851334-23.2182 0-11.144736 1.470486-33.163329 1.470486-33.163328h-17.684529s1.741365 22.095987 1.741365 33.163328c-0.077394 6.152823-0.619152 15.904467-1.122213 23.256897z" fill="#A3B1BF" p-id="5793"></path><path d="M692.366715 515.908397a86.952158 86.952158 0 1 1 36.026906 170.266798l-9.28728-24.224322a61.489532 61.489532 0 0 0-8.165067-122.437306 60.87038 60.87038 0 0 0-34.827299 10.757765l-4.217973-10.912553z" fill="#98A5B3" p-id="5794"></path><path d="M715.12055 686.678256A86.952158 86.952158 0 1 1 801.995314 599.803492a86.913461 86.913461 0 0 1-86.874764 86.874764z m0-25.462626A61.489532 61.489532 0 1 0 653.669715 599.803492a61.450835 61.450835 0 0 0 61.450835 61.412138z" fill="#A3B1BF" p-id="5795"></path><path d="M715.12055 599.726098m-16.949286 0a16.949286 16.949286 0 1 0 33.898572 0 16.949286 16.949286 0 1 0-33.898572 0Z" fill="#A3B1BF" p-id="5796"></path><path d="M723.63389 606.265891a9.403371 9.403371 0 0 0-12.847404-13.776132 19.3485 19.3485 0 0 1 12.847404 13.776132z" fill="#F7FAFC" p-id="5797"></path></svg>