<?xml version="1.0" standalone="no"?><!DOCTYPE svg PUBLIC "-//W3C//DTD SVG 1.1//EN" "http://www.w3.org/Graphics/SVG/1.1/DTD/svg11.dtd"><svg t="1535940179102" class="icon" style="" viewBox="0 0 2004 1024" version="1.1" xmlns="http://www.w3.org/2000/svg" p-id="4441" xmlns:xlink="http://www.w3.org/1999/xlink" width="391.40625" height="200"><defs><style type="text/css"></style></defs><path d="M1979.733333 1024H48.761905c-5.36381 0-9.752381-4.388571-9.752381-9.752381s4.388571-9.752381 9.752381-9.752381h1930.971428c5.36381 0 9.752381 4.388571 9.752381 9.752381s-4.388571 9.752381-9.752381 9.752381zM1741.775238 999.619048H1214.171429V325.729524c0-15.60381 12.678095-28.281905 28.281904-28.281905H1770.057143v673.889524c0 15.60381-12.678095 28.281905-28.281905 28.281905z" fill="#CDDFF1" p-id="4442"></path><path d="M885.028571 943.542857h-214.552381c-2.925714 0-4.87619-1.950476-4.87619-4.87619V877.714286c0-2.925714 1.950476-4.87619 4.87619-4.876191s4.87619 1.950476 4.876191 4.876191v56.07619h204.8v-209.67619c0-2.925714 1.950476-4.87619 4.87619-4.876191h53.638096c2.925714 0 4.87619 1.950476 4.87619 4.876191s-1.950476 4.87619-4.87619 4.87619h-48.761905v209.676191c0 2.925714-1.950476 4.87619-4.876191 4.87619zM1178.087619 943.542857h-112.64c-2.925714 0-4.87619-1.950476-4.87619-4.87619v-209.676191h-48.761905c-2.925714 0-4.87619-1.950476-4.876191-4.87619s1.950476-4.87619 4.876191-4.876191h53.638095c2.925714 0 4.87619 1.950476 4.876191 4.876191v209.67619h107.763809c2.925714 0 4.87619 1.950476 4.876191 4.876191s-2.438095 4.87619-4.876191 4.87619zM504.198095 897.706667l13.653334 93.135238H452.022857l13.653333-93.135238h38.521905m8.289524-9.752381H456.899048l-16.579048 112.64h88.259048l-16.091429-112.64z" fill="#4C5E78" p-id="4443"></path><path d="M769.462857 898.681905H197.973333c-26.331429 0-47.299048-20.967619-47.299047-47.299048v-53.638095h665.112381v55.100952c0 25.35619-20.967619 45.83619-46.32381 45.836191z" fill="#FFFFFF" p-id="4444"></path><path d="M819.2 794.819048H178.95619v-240.396191c0-18.529524 15.11619-34.133333 34.133334-34.133333h583.192381c12.678095 0 23.405714 10.24 23.405714 23.405714V794.819048h-0.487619z" fill="#CDDFF1" p-id="4445"></path><path d="M774.826667 504.198095c19.992381 0 36.08381 16.091429 36.083809 36.08381v316.952381c0 19.992381-16.091429 36.08381-36.083809 36.083809h-580.266667c-19.992381 0-36.08381-16.091429-36.08381-36.083809v-316.952381c0-19.992381 16.091429-36.08381 36.08381-36.08381h580.266667m0-9.752381h-580.266667c-25.35619 0-45.83619 20.48-45.83619 45.836191v316.952381c0 25.35619 20.48 45.83619 45.83619 45.83619H775.314286c25.35619 0 45.83619-20.48 45.83619-45.83619v-316.952381c-0.487619-25.35619-20.967619-45.83619-46.323809-45.836191zM556.860952 1004.007619H413.013333c-2.925714 0-4.87619-1.950476-4.87619-4.87619s1.950476-4.87619 4.87619-4.876191h143.847619c2.925714 0 4.87619 1.950476 4.876191 4.876191s-2.438095 4.87619-4.876191 4.87619z" fill="#4C5E78" p-id="4446"></path><path d="M154.575238 792.868571h661.211429v9.752381H154.575238z" fill="#4C5E78" p-id="4447"></path><path d="M482.568791 856.087978a15.60381 15.60381 0 1 0 17.285908-25.982934 15.60381 15.60381 0 1 0-17.285908 25.982934Z" fill="#CDDFF1" p-id="4448"></path><path d="M484.693333 860.16c-9.264762 0-17.066667-7.801905-17.066666-17.066667s7.801905-17.066667 17.066666-17.066666 17.066667 7.801905 17.066667 17.066666-7.801905 17.066667-17.066667 17.066667z m0-28.769524c-6.826667 0-12.190476 5.36381-12.190476 12.190476s5.36381 12.190476 12.190476 12.190477 12.190476-5.36381 12.190477-12.190477-5.36381-12.190476-12.190477-12.190476zM1744.213333 1006.933333H1215.634286c-18.041905 0-33.158095-14.628571-33.158096-33.158095V298.422857c0-18.041905 14.628571-33.158095 33.158096-33.158095h529.066666c18.041905 0 33.158095 14.628571 33.158096 33.158095v675.352381c-0.487619 18.529524-15.11619 33.158095-33.645715 33.158095z m-528.579047-731.428571c-12.678095 0-23.405714 10.24-23.405715 23.405714v675.352381c0 12.678095 10.24 23.405714 23.405715 23.405714h529.066666c12.678095 0 23.405714-10.24 23.405715-23.405714V298.422857c0-12.678095-10.24-23.405714-23.405715-23.405714l-529.066666 0.487619z" fill="#4C5E78" p-id="4449"></path><path d="M1184.914286 390.095238h585.142857v9.752381H1184.914286zM1184.914286 512h585.142857v9.752381H1184.914286zM1184.914286 633.904762h585.142857v9.752381H1184.914286zM1189.790476 750.933333h585.142857v9.752381H1189.790476zM1184.914286 877.714286h585.142857v9.752381H1184.914286z" fill="#4C5E78" p-id="4450"></path><path d="M1277.561905 331.580952m-9.752381 0a9.752381 9.752381 0 1 0 19.504762 0 9.752381 9.752381 0 1 0-19.504762 0Z" fill="#FF6E6E" p-id="4451"></path><path d="M1326.32381 331.580952m-9.752381 0a9.752381 9.752381 0 1 0 19.504761 0 9.752381 9.752381 0 1 0-19.504761 0Z" fill="#FF6E6E" p-id="4452"></path><path d="M1375.085714 331.580952m-9.752381 0a9.752381 9.752381 0 1 0 19.504762 0 9.752381 9.752381 0 1 0-19.504762 0Z" fill="#FF6E6E" p-id="4453"></path><path d="M1277.561905 458.361905m-9.752381 0a9.752381 9.752381 0 1 0 19.504762 0 9.752381 9.752381 0 1 0-19.504762 0Z" fill="#FF6E6E" p-id="4454"></path><path d="M1326.32381 458.361905m-9.752381 0a9.752381 9.752381 0 1 0 19.504761 0 9.752381 9.752381 0 1 0-19.504761 0Z" fill="#FF6E6E" p-id="4455"></path><path d="M1375.085714 458.361905m-9.752381 0a9.752381 9.752381 0 1 0 19.504762 0 9.752381 9.752381 0 1 0-19.504762 0Z" fill="#FF6E6E" p-id="4456"></path><path d="M1277.561905 580.266667m-9.752381 0a9.752381 9.752381 0 1 0 19.504762 0 9.752381 9.752381 0 1 0-19.504762 0Z" fill="#FF6E6E" p-id="4457"></path><path d="M1326.32381 580.266667m-9.752381 0a9.752381 9.752381 0 1 0 19.504761 0 9.752381 9.752381 0 1 0-19.504761 0Z" fill="#FF6E6E" p-id="4458"></path><path d="M1375.085714 580.266667m-9.752381 0a9.752381 9.752381 0 1 0 19.504762 0 9.752381 9.752381 0 1 0-19.504762 0Z" fill="#FF6E6E" p-id="4459"></path><path d="M1277.561905 697.295238m-9.752381 0a9.752381 9.752381 0 1 0 19.504762 0 9.752381 9.752381 0 1 0-19.504762 0Z" fill="#FF6E6E" p-id="4460"></path><path d="M1326.32381 697.295238m-9.752381 0a9.752381 9.752381 0 1 0 19.504761 0 9.752381 9.752381 0 1 0-19.504761 0Z" fill="#FF6E6E" p-id="4461"></path><path d="M1375.085714 697.295238m-9.752381 0a9.752381 9.752381 0 1 0 19.504762 0 9.752381 9.752381 0 1 0-19.504762 0Z" fill="#FF6E6E" p-id="4462"></path><path d="M1277.561905 819.2m-9.752381 0a9.752381 9.752381 0 1 0 19.504762 0 9.752381 9.752381 0 1 0-19.504762 0Z" fill="#FF6E6E" p-id="4463"></path><path d="M1326.32381 819.2m-9.752381 0a9.752381 9.752381 0 1 0 19.504761 0 9.752381 9.752381 0 1 0-19.504761 0Z" fill="#FF6E6E" p-id="4464"></path><path d="M1375.085714 819.2m-9.752381 0a9.752381 9.752381 0 1 0 19.504762 0 9.752381 9.752381 0 1 0-19.504762 0Z" fill="#FF6E6E" p-id="4465"></path><path d="M1277.561905 941.104762m-9.752381 0a9.752381 9.752381 0 1 0 19.504762 0 9.752381 9.752381 0 1 0-19.504762 0Z" fill="#FF6E6E" p-id="4466"></path><path d="M1326.32381 941.104762m-9.752381 0a9.752381 9.752381 0 1 0 19.504761 0 9.752381 9.752381 0 1 0-19.504761 0Z" fill="#FF6E6E" p-id="4467"></path><path d="M1375.085714 941.104762m-9.752381 0a9.752381 9.752381 0 1 0 19.504762 0 9.752381 9.752381 0 1 0-19.504762 0Z" fill="#FF6E6E" p-id="4468"></path><path d="M1550.628571 360.838095c-2.925714 0-4.87619-1.950476-4.87619-4.87619V307.2c0-2.925714 1.950476-4.87619 4.87619-4.87619s4.87619 1.950476 4.876191 4.87619v48.761905c0 2.925714-1.950476 4.87619-4.876191 4.87619zM1599.390476 360.838095c-2.925714 0-4.87619-1.950476-4.87619-4.87619V307.2c0-2.925714 1.950476-4.87619 4.87619-4.87619s4.87619 1.950476 4.876191 4.87619v48.761905c0 2.925714-1.950476 4.87619-4.876191 4.87619zM1648.152381 360.838095c-2.925714 0-4.87619-1.950476-4.876191-4.87619V307.2c0-2.925714 1.950476-4.87619 4.876191-4.87619s4.87619 1.950476 4.87619 4.87619v48.761905c0 2.925714-1.950476 4.87619-4.87619 4.87619zM1696.914286 360.838095c-2.925714 0-4.87619-1.950476-4.876191-4.87619V307.2c0-2.925714 1.950476-4.87619 4.876191-4.87619s4.87619 1.950476 4.87619 4.87619v48.761905c0 2.925714-1.950476 4.87619-4.87619 4.87619zM1550.628571 482.742857c-2.925714 0-4.87619-1.950476-4.87619-4.87619V429.104762c0-2.925714 1.950476-4.87619 4.87619-4.876191s4.87619 1.950476 4.876191 4.876191v48.761905c0 2.925714-1.950476 4.87619-4.876191 4.87619zM1599.390476 482.742857c-2.925714 0-4.87619-1.950476-4.87619-4.87619V429.104762c0-2.925714 1.950476-4.87619 4.87619-4.876191s4.87619 1.950476 4.876191 4.876191v48.761905c0 2.925714-1.950476 4.87619-4.876191 4.87619zM1648.152381 482.742857c-2.925714 0-4.87619-1.950476-4.876191-4.87619V429.104762c0-2.925714 1.950476-4.87619 4.876191-4.876191s4.87619 1.950476 4.87619 4.876191v48.761905c0 2.925714-1.950476 4.87619-4.87619 4.87619zM1696.914286 482.742857c-2.925714 0-4.87619-1.950476-4.876191-4.87619V429.104762c0-2.925714 1.950476-4.87619 4.876191-4.876191s4.87619 1.950476 4.87619 4.876191v48.761905c0 2.925714-1.950476 4.87619-4.87619 4.87619zM1550.628571 609.52381c-2.925714 0-4.87619-1.950476-4.87619-4.876191v-48.761905c0-2.925714 1.950476-4.87619 4.87619-4.87619s4.87619 1.950476 4.876191 4.87619v48.761905c0 2.925714-1.950476 4.87619-4.876191 4.876191zM1599.390476 609.52381c-2.925714 0-4.87619-1.950476-4.87619-4.876191v-48.761905c0-2.925714 1.950476-4.87619 4.87619-4.87619s4.87619 1.950476 4.876191 4.87619v48.761905c0 2.925714-1.950476 4.87619-4.876191 4.876191zM1648.152381 609.52381c-2.925714 0-4.87619-1.950476-4.876191-4.876191v-48.761905c0-2.925714 1.950476-4.87619 4.876191-4.87619s4.87619 1.950476 4.87619 4.87619v48.761905c0 2.925714-1.950476 4.87619-4.87619 4.876191zM1696.914286 609.52381c-2.925714 0-4.87619-1.950476-4.876191-4.876191v-48.761905c0-2.925714 1.950476-4.87619 4.876191-4.87619s4.87619 1.950476 4.87619 4.87619v48.761905c0 2.925714-1.950476 4.87619-4.87619 4.876191zM1550.628571 726.552381c-2.925714 0-4.87619-1.950476-4.87619-4.876191v-48.761904c0-2.925714 1.950476-4.87619 4.87619-4.876191s4.87619 1.950476 4.876191 4.876191v48.761904c0 2.925714-1.950476 4.87619-4.876191 4.876191zM1599.390476 726.552381c-2.925714 0-4.87619-1.950476-4.87619-4.876191v-48.761904c0-2.925714 1.950476-4.87619 4.87619-4.876191s4.87619 1.950476 4.876191 4.876191v48.761904c0 2.925714-1.950476 4.87619-4.876191 4.876191zM1648.152381 726.552381c-2.925714 0-4.87619-1.950476-4.876191-4.876191v-48.761904c0-2.925714 1.950476-4.87619 4.876191-4.876191s4.87619 1.950476 4.87619 4.876191v48.761904c0 2.925714-1.950476 4.87619-4.87619 4.876191zM1696.914286 726.552381c-2.925714 0-4.87619-1.950476-4.876191-4.876191v-48.761904c0-2.925714 1.950476-4.87619 4.876191-4.876191s4.87619 1.950476 4.87619 4.876191v48.761904c0 2.925714-1.950476 4.87619-4.87619 4.876191zM1550.628571 848.457143c-2.925714 0-4.87619-1.950476-4.87619-4.876191v-48.761904c0-2.925714 1.950476-4.87619 4.87619-4.876191s4.87619 1.950476 4.876191 4.876191v48.761904c0 2.925714-1.950476 4.87619-4.876191 4.876191zM1599.390476 848.457143c-2.925714 0-4.87619-1.950476-4.87619-4.876191v-48.761904c0-2.925714 1.950476-4.87619 4.87619-4.876191s4.87619 1.950476 4.876191 4.876191v48.761904c0 2.925714-1.950476 4.87619-4.876191 4.876191zM1648.152381 848.457143c-2.925714 0-4.87619-1.950476-4.876191-4.876191v-48.761904c0-2.925714 1.950476-4.87619 4.876191-4.876191s4.87619 1.950476 4.87619 4.876191v48.761904c0 2.925714-1.950476 4.87619-4.87619 4.876191zM1696.914286 848.457143c-2.925714 0-4.87619-1.950476-4.876191-4.876191v-48.761904c0-2.925714 1.950476-4.87619 4.876191-4.876191s4.87619 1.950476 4.87619 4.876191v48.761904c0 2.925714-1.950476 4.87619-4.87619 4.876191zM1550.628571 970.361905c-2.925714 0-4.87619-1.950476-4.87619-4.876191v-48.761904c0-2.925714 1.950476-4.87619 4.87619-4.876191s4.87619 1.950476 4.876191 4.876191v48.761904c0 2.925714-1.950476 4.87619-4.876191 4.876191zM1599.390476 970.361905c-2.925714 0-4.87619-1.950476-4.87619-4.876191v-48.761904c0-2.925714 1.950476-4.87619 4.87619-4.876191s4.87619 1.950476 4.876191 4.876191v48.761904c0 2.925714-1.950476 4.87619-4.876191 4.876191zM1648.152381 970.361905c-2.925714 0-4.87619-1.950476-4.876191-4.876191v-48.761904c0-2.925714 1.950476-4.87619 4.876191-4.876191s4.87619 1.950476 4.87619 4.876191v48.761904c0 2.925714-1.950476 4.87619-4.87619 4.876191zM1696.914286 970.361905c-2.925714 0-4.87619-1.950476-4.876191-4.876191v-48.761904c0-2.925714 1.950476-4.87619 4.876191-4.876191s4.87619 1.950476 4.87619 4.876191v48.761904c0 2.925714-1.950476 4.87619-4.87619 4.876191zM1772.495238 482.255238v-9.752381c33.645714 0 60.464762-27.306667 60.464762-60.464762s-27.306667-60.464762-60.464762-60.464762v-9.752381c39.009524 0 70.217143 31.695238 70.217143 70.217143s-31.207619 70.217143-70.217143 70.217143z" fill="#4C5E78" p-id="4469"></path><path d="M1772.495238 560.274286v-9.752381c33.645714 0 60.464762-27.306667 60.464762-60.464762s-27.306667-60.464762-60.464762-60.464762v-9.752381c39.009524 0 70.217143 31.695238 70.217143 70.217143s-31.207619 70.217143-70.217143 70.217143zM1772.495238 760.198095v-9.752381c33.645714 0 60.464762-27.306667 60.464762-60.464762s-27.306667-60.464762-60.464762-60.464762v-9.75238c39.009524 0 70.217143 31.695238 70.217143 70.217142s-31.207619 70.217143-70.217143 70.217143z" fill="#4C5E78" p-id="4470"></path><path d="M1772.495238 838.217143v-9.752381c33.645714 0 60.464762-27.306667 60.464762-60.464762s-27.306667-60.464762-60.464762-60.464762v-9.752381c39.009524 0 70.217143 31.695238 70.217143 70.217143s-31.207619 70.217143-70.217143 70.217143z" fill="#4C5E78" p-id="4471"></path><path d="M1772.495238 935.740952v-9.752381c33.645714 0 60.464762-27.306667 60.464762-60.464761s-27.306667-60.464762-60.464762-60.464762v-9.752381c39.009524 0 70.217143 31.695238 70.217143 70.217143s-31.207619 70.217143-70.217143 70.217142zM1165.409524 902.095238h19.504762v73.142857h-19.504762z" fill="#4C5E78" p-id="4472"></path><path d="M936.228571 707.047619h14.628572v34.133333h-14.628572zM999.619048 707.047619h14.628571v34.133333h-14.628571z" fill="#FF6E6E" p-id="4473"></path><path d="M945.980952 685.104762c-0.975238 0-1.462857-0.487619-1.950476-0.975238l-14.628571-24.380953c-0.487619-0.975238-0.487619-2.438095 0.975238-3.413333 0.975238-0.487619 2.438095-0.487619 3.413333 0.975238l14.628572 24.380953c0.487619 0.975238 0.487619 2.438095-0.975238 3.413333h-1.462858zM972.8 677.302857c-1.462857 0-2.438095-0.975238-2.438095-2.438095v-28.281905c0-1.462857 0.975238-2.438095 2.438095-2.438095s2.438095 0.975238 2.438095 2.438095v28.281905c0 1.462857-0.975238 2.438095-2.438095 2.438095zM999.131429 684.617143c-0.487619 0-0.975238 0-1.462858-0.487619-0.975238-0.975238-1.462857-2.438095-0.487619-3.413334l15.60381-23.893333c0.975238-0.975238 2.438095-1.462857 3.413333-0.487619s1.462857 2.438095 0.487619 3.413333l-15.603809 23.893334c-0.487619 0.487619-1.462857 0.975238-1.950476 0.975238z" fill="#4C5E78" p-id="4474"></path><path d="M318.902857 689.980952l29.257143-4.388571c2.925714 9.752381 9.752381 14.628571 21.455238 15.11619 12.190476-0.975238 19.017143-6.339048 20.48-17.066666-0.487619-11.215238-7.801905-17.066667-21.455238-17.554286-8.777143 0.487619-15.60381 2.438095-20.48 5.851429h-23.893333l4.87619-57.539048h82.407619v18.529524H353.52381l-2.925715 23.405714c7.801905-3.900952 16.579048-5.851429 25.84381-5.851428 27.306667 0.487619 41.935238 11.215238 42.910476 32.182857-0.975238 21.942857-17.554286 33.158095-49.737143 34.133333-26.819048-0.487619-43.398095-9.264762-50.712381-26.819048zM531.504762 664.624762c0.975238 35.108571-16.091429 52.662857-50.712381 51.687619-33.645714-0.487619-50.224762-17.554286-50.712381-51.2 0.975238-34.133333 18.041905-52.175238 50.712381-53.150476 33.158095 0 50.224762 17.554286 50.712381 52.662857z m-31.207619 0.487619c0.487619-24.868571-5.851429-37.059048-19.017143-36.08381-13.653333-0.487619-20.48 11.702857-20.48 36.08381 0 23.405714 6.826667 35.59619 20.48 35.59619 13.165714-0.487619 19.504762-12.190476 19.017143-35.59619zM643.657143 664.624762c0.975238 35.108571-16.091429 52.662857-50.712381 51.687619-33.645714-0.487619-50.224762-17.554286-50.712381-51.2 0.975238-34.133333 18.041905-52.175238 50.712381-53.150476 33.158095 0 50.224762 17.554286 50.712381 52.662857z m-31.207619 0.487619c0.487619-24.868571-5.851429-37.059048-19.017143-36.08381-13.653333-0.487619-20.48 11.702857-20.48 36.08381 0 23.405714 6.826667 35.59619 20.48 35.59619 13.165714-0.487619 19.504762-12.190476 19.017143-35.59619z" fill="#FFFFFF" p-id="4475"></path><path d="M37.546667 384.731429c-0.487619 0-1.462857-0.487619-1.950477-0.975239l-7.801904-9.75238c-0.975238-0.975238-0.487619-2.438095 0.487619-3.413334 0.975238-0.975238 2.438095-0.487619 3.413333 0.487619l7.801905 9.752381c0.975238 0.975238 0.487619 2.438095-0.487619 3.413334-0.487619 0.487619-0.975238 0.487619-1.462857 0.487619z" fill="#A1C9F1" p-id="4476"></path><path d="M32.670476 393.508571s-0.487619 0 0 0l-12.678095-2.438095c-1.462857-0.487619-1.950476-1.462857-1.950476-2.925714 0.487619-1.462857 1.462857-2.438095 2.925714-1.950476l12.190476 2.438095c1.462857 0.487619 1.950476 1.462857 1.950476 2.925714-0.487619 0.975238-1.462857 1.950476-2.438095 1.950476z" fill="#A1C9F1" p-id="4477"></path><path d="M23.405714 409.6c-0.975238 0-1.462857-0.487619-1.950476-0.975238-0.487619-0.975238-0.487619-2.438095 0.975238-3.413333l10.727619-6.339048c0.975238-0.487619 2.438095-0.487619 3.413334 0.975238 0.487619 0.975238 0.487619 2.438095-0.975239 3.413333L24.868571 409.6h-1.462857z" fill="#A1C9F1" p-id="4478"></path><path d="M38.034286 421.790476h-0.975238c-1.462857-0.487619-1.950476-1.950476-1.462858-2.925714l3.900953-11.702857c0.487619-1.462857 1.950476-1.950476 2.925714-1.462857 1.462857 0.487619 1.950476 1.950476 1.462857 2.925714l-3.900952 11.702857c0 0.975238-0.975238 1.462857-1.950476 1.462857z" fill="#A1C9F1" p-id="4479"></path><path d="M56.56381 421.790476c-0.975238 0-1.950476-0.487619-2.438096-1.462857l-4.388571-11.702857c-0.487619-1.462857 0-2.438095 1.462857-2.925714 1.462857-0.487619 2.438095 0 2.925714 1.462857l4.388572 11.702857c0.487619 1.462857 0 2.438095-1.462857 2.925714h-0.487619z" fill="#A1C9F1" p-id="4480"></path><path d="M70.704762 409.6c-0.487619 0-0.975238 0-1.462857-0.487619L58.514286 402.773333c-0.975238-0.487619-1.462857-1.950476-0.975238-3.413333 0.487619-0.975238 1.950476-1.462857 3.413333-0.975238l10.727619 6.339048c0.975238 0.487619 1.462857 1.950476 0.975238 3.413333-0.487619 0.975238-0.975238 1.462857-1.950476 1.462857z" fill="#A1C9F1" p-id="4481"></path><path d="M61.927619 393.508571c-0.975238 0-1.950476-0.975238-2.438095-1.950476-0.487619-1.462857 0.487619-2.438095 1.950476-2.925714l12.190476-2.438095c1.462857-0.487619 2.438095 0.487619 2.925714 1.950476 0.487619 1.462857-0.487619 2.438095-1.950476 2.925714l-12.678095 2.438095c0.487619 0 0 0 0 0z" fill="#A1C9F1" p-id="4482"></path><path d="M57.051429 384.731429c-0.487619 0-0.975238 0-1.462858-0.487619-0.975238-0.975238-1.462857-2.438095-0.487619-3.413334l7.801905-9.752381c0.975238-0.975238 2.438095-0.975238 3.413333-0.487619 0.975238 0.975238 1.462857 2.438095 0.48762 3.413334l-7.801905 9.75238c-0.487619 0.487619-1.462857 0.975238-1.950476 0.975239z" fill="#A1C9F1" p-id="4483"></path><path d="M47.299048 380.830476c-1.462857 0-2.438095-0.975238-2.438096-2.438095v-12.190476c0-1.462857 0.975238-2.438095 2.438096-2.438095s2.438095 0.975238 2.438095 2.438095v12.190476c0 1.462857-0.975238 2.438095-2.438095 2.438095z" fill="#A1C9F1" p-id="4484"></path><path d="M1402.88 82.407619c-0.487619 0-1.462857-0.487619-1.950476-0.975238l-7.801905-9.752381c-0.975238-0.975238-0.487619-2.438095 0.487619-3.413333 0.975238-0.975238 2.438095-0.487619 3.413333 0.487619l7.801905 9.752381c0.975238 0.975238 0.487619 2.438095-0.487619 3.413333-0.487619 0.487619-0.975238 0.487619-1.462857 0.487619z" fill="#B8D6F5" p-id="4485"></path><path d="M1398.00381 91.184762s-0.487619 0 0 0l-12.678096-2.438095c-1.462857-0.487619-1.950476-1.462857-1.950476-2.925715 0.487619-1.462857 1.462857-1.950476 2.925714-1.950476l12.190477 2.438095c1.462857 0.487619 1.950476 1.462857 1.950476 2.925715-0.487619 0.975238-1.462857 1.950476-2.438095 1.950476z" fill="#B8D6F5" p-id="4486"></path><path d="M1388.739048 107.27619c-0.975238 0-1.462857-0.487619-1.950477-0.975238-0.487619-0.975238-0.487619-2.438095 0.975239-3.413333l10.727619-6.339048c0.975238-0.487619 2.438095-0.487619 3.413333 0.975239 0.487619 0.975238 0.487619 2.438095-0.975238 3.413333l-10.727619 6.339047h-1.462857z" fill="#B8D6F5" p-id="4487"></path><path d="M1403.367619 119.466667h-0.975238c-1.462857-0.487619-1.950476-1.950476-1.462857-2.925715l3.900952-11.702857c0.487619-1.462857 1.950476-1.950476 2.925714-1.462857 1.462857 0.487619 1.950476 1.950476 1.462858 2.925714l-3.900953 11.702858c0 0.975238-0.975238 1.462857-1.950476 1.462857z" fill="#B8D6F5" p-id="4488"></path><path d="M1421.897143 119.466667c-0.975238 0-1.950476-0.487619-2.438095-1.462857l-4.388572-11.702858c-0.487619-1.462857 0-2.438095 1.462857-2.925714 1.462857-0.487619 2.438095 0 2.925715 1.462857l4.388571 11.702857c0.487619 1.462857 0 2.438095-1.462857 2.925715h-0.487619z" fill="#B8D6F5" p-id="4489"></path><path d="M1436.038095 107.27619c-0.487619 0-0.975238 0-1.462857-0.487619l-10.727619-6.339047c-0.975238-0.487619-1.462857-1.950476-0.975238-3.413334 0.487619-0.975238 2.438095-1.462857 3.413333-0.975238l10.727619 6.339048c0.975238 0.487619 1.462857 1.950476 0.975238 3.413333-0.487619 0.975238-0.975238 1.462857-1.950476 1.462857z" fill="#B8D6F5" p-id="4490"></path><path d="M1427.260952 91.184762c-0.975238 0-1.950476-0.975238-2.438095-1.950476-0.487619-1.462857 0.487619-2.438095 1.950476-2.925715l12.190477-2.438095c1.462857-0.487619 2.438095 0.487619 2.925714 1.950476 0.487619 1.462857-0.487619 2.438095-1.950476 2.925715l-12.678096 2.438095c0.487619 0 0 0 0 0z" fill="#B8D6F5" p-id="4491"></path><path d="M1422.384762 82.407619c-0.487619 0-0.975238 0-1.462857-0.487619-0.975238-0.975238-0.975238-2.438095-0.487619-3.413333l7.801904-9.752381c0.975238-0.975238 2.438095-0.975238 3.413334-0.487619 0.975238 0.975238 0.975238 2.438095 0.487619 3.413333l-7.801905 9.752381c-0.487619 0.487619-1.462857 0.975238-1.950476 0.975238z" fill="#B8D6F5" p-id="4492"></path><path d="M1412.632381 78.506667c-1.462857 0-2.438095-0.975238-2.438095-2.438096v-12.190476c0-1.462857 0.975238-2.438095 2.438095-2.438095s2.438095 0.975238 2.438095 2.438095v12.190476c0 1.462857-0.975238 2.438095-2.438095 2.438096z" fill="#B8D6F5" p-id="4493"></path><path d="M1966.08 339.870476l-15.11619-5.363809 13.653333-8.777143 0.487619-16.091429 12.678095 10.24 15.60381-4.388571-6.339048 15.11619 9.264762 13.653334-16.091429-1.462858L1969.980952 355.961905z" fill="#A1C9F1" p-id="4494"></path><path d="M850.895238 68.266667l-16.091428-1.950477 11.702857-11.702857L843.580952 39.009524l14.140953 7.314286 14.140952-7.801905-2.438095 15.603809 11.702857 11.215238-15.603809 2.925715-6.826667 14.628571z" fill="#A1C9F1" p-id="4495"></path><path d="M457.386667 103.375238c-0.487619 0-1.462857-0.487619-1.950477-0.975238l-7.314285-9.264762c-0.975238-0.975238-0.487619-2.438095 0.487619-3.413333 0.975238-0.975238 2.438095-0.487619 3.413333 0.487619l7.314286 9.264762c0.975238 0.975238 0.487619 2.438095-0.487619 3.413333-0.487619 0.487619-0.975238 0.487619-1.462857 0.487619z" fill="#B8D6F5" p-id="4496"></path><path d="M440.807619 118.491429c-0.975238 0-2.438095-0.975238-2.438095-1.950477 0-1.462857 0.487619-2.438095 1.950476-2.925714l11.702857-1.950476c1.462857 0 2.438095 0.487619 2.925714 1.950476 0 1.462857-0.487619 2.438095-1.950476 2.925714l-12.190476 1.950477c0.487619 0 0 0 0 0z" fill="#B8D6F5" p-id="4497"></path><path d="M456.899048 138.48381h-0.975238c-1.462857-0.487619-1.950476-1.950476-1.462858-3.413334l4.388572-10.727619c0.487619-1.462857 1.950476-1.950476 3.413333-1.462857 1.462857 0.487619 1.950476 1.950476 1.462857 3.413333l-4.388571 10.727619c-0.487619 0.975238-1.462857 1.462857-2.438095 1.462858z" fill="#B8D6F5" p-id="4498"></path><path d="M482.742857 134.582857c-0.487619 0-1.462857-0.487619-1.950476-0.975238l-7.314286-9.264762c-0.975238-0.975238-0.487619-2.438095 0.487619-3.413333 0.975238-0.975238 2.438095-0.487619 3.413334 0.487619l7.314285 9.264762c0.975238 0.975238 0.487619 2.438095-0.487619 3.413333-0.487619 0.487619-0.975238 0.487619-1.462857 0.487619z" fill="#B8D6F5" p-id="4499"></path><path d="M480.304762 112.152381c-0.975238 0-2.438095-0.975238-2.438095-1.950476 0-1.462857 0.487619-2.438095 1.950476-2.925715l11.702857-1.950476c1.462857 0 2.438095 0.487619 2.925714 1.950476 0 1.462857-0.487619 2.438095-1.950476 2.925715l-12.190476 1.950476c0.487619 0 0 0 0 0z" fill="#B8D6F5" p-id="4500"></path><path d="M471.527619 100.937143h-0.975238c-1.462857-0.487619-1.950476-1.950476-1.462857-3.413333l4.388571-10.72762c0.487619-1.462857 1.950476-1.950476 3.413334-1.462857 1.462857 0.487619 1.950476 1.950476 1.462857 3.413334l-4.388572 10.727619c-0.487619 0.975238-1.462857 1.462857-2.438095 1.462857z" fill="#B8D6F5" p-id="4501"></path><path d="M687.542857 319.390476c-12.190476 0-21.942857-9.752381-21.942857-21.942857s9.752381-21.942857 21.942857-21.942857 21.942857 9.752381 21.942857 21.942857-9.752381 21.942857-21.942857 21.942857z m0-39.009524c-9.264762 0-17.066667 7.801905-17.066667 17.066667s7.801905 17.066667 17.066667 17.066667 17.066667-7.801905 17.066667-17.066667-7.801905-17.066667-17.066667-17.066667z" fill="#A1C9F1" p-id="4502"></path><path d="M1789.561905 129.219048l-40.472381-17.066667 17.066666-40.472381 40.472381 17.066667-17.066666 40.472381z m-27.794286-22.430477l22.430476 9.752381 9.752381-22.430476-22.430476-9.752381-9.752381 22.430476z" fill="#A1C9F1" p-id="4503"></path><path d="M217.965714 242.834286l-36.083809-15.116191 15.11619-36.083809 36.08381 15.11619-15.116191 36.08381z m-29.257143-17.554286l26.819048 11.215238 11.215238-26.819048-26.819047-11.702857-11.215239 27.306667z" fill="#A1C9F1" p-id="4504"></path></svg>